<?xml version="1.0" standalone="no"?>
  <!DOCTYPE svg PUBLIC "-//W3C//DTD SVG 1.1//EN" "http://www.w3.org/Graphics/SVG/1.1/DTD/svg11.dtd" >
  <svg>
  <metadata>
  Created by font-carrier
  </metadata>
  <defs>
  <font id="FiveFontsatFreddy'sRegular" horiz-adv-x="2304" vert-adv-y="2304" >
    <font-face
      
      font-family="Five Fonts at Freddy's"
      
      font-weight="400"
      
      font-stretch="normal"
      
      units-per-em="1536"
      
      ascent="2688"
      
      descent="-576"
      
    />
      <missing-glyph />

      

      
      <glyph glyph-name="uni0" unicode="&#x0;" d="M20 675L437 675L437 0L20 0L20 675M68 48L388 48L388 627L68 627L68 48Z"  horiz-adv-x="457" vert-adv-y="1536"  />

      
      <glyph glyph-name="uni21" unicode="&#x21;" d="M192 960L0 960L0 1152L192 1152L192 960M192 1344L0 1344L0 2304L192 2304L192 1344Z"  horiz-adv-x="384" vert-adv-y="1536"  />

      
      <glyph glyph-name="uni22" unicode="&#x22;" d="M192 1920L0 1920L0 2304L192 2304L192 1920M576 1920L384 1920L384 2304L576 2304L576 1920Z"  horiz-adv-x="768" vert-adv-y="1536"  />

      
      <glyph glyph-name="uni23" unicode="&#x23;" d="M384 1536L576 1536L576 1728L384 1728L384 1536M384 960L192 960L192 1344L0 1344L0 1536L192 1536L192 1728L0 1728L0 1920L192 1920L192 2304L384 2304L384 1920L576 1920L576 2304L768 2304L768 1920L960 1920L960 1728L768 1728L768 1536L960 1536L960 1344L768 1344L768 960L576 960L576 1344L384 1344L384 960Z"  horiz-adv-x="1152" vert-adv-y="1536"  />

      
      <glyph glyph-name="uni24" unicode="&#x24;" d="M576 960L384 960L384 1152L0 1152L0 1344L768 1344L768 1152L576 1152L576 960M960 1344L768 1344L768 1536L960 1536L960 1344M768 1536L192 1536L192 1728L768 1728L768 1536M192 1728L0 1728L0 1920L192 1920L192 1728M960 1920L192 1920L192 2112L384 2112L384 2304L576 2304L576 2112L960 2112L960 1920Z"  horiz-adv-x="1152" vert-adv-y="1536"  />

      
      <glyph glyph-name="uni25" unicode="&#x25;" d="M192 960L0 960L0 1152L192 1152L192 960M960 960L768 960L768 1344L960 1344L960 960M384 1152L192 1152L192 1536L384 1536L384 1152M576 1536L384 1536L384 1728L576 1728L576 1536M768 1728L576 1728L576 2112L768 2112L768 1728M192 1920L0 1920L0 2304L192 2304L192 1920M960 2112L768 2112L768 2304L960 2304L960 2112Z"  horiz-adv-x="1152" vert-adv-y="1536"  />

      
      <glyph glyph-name="uni26" unicode="&#x26;" d="M576 960L192 960L192 1152L576 1152L576 960M960 960L768 960L768 1152L960 1152L960 960M192 1152L0 1152L0 1536L192 1536L192 1152M960 1536L768 1536L768 1728L960 1728L960 1536M768 1152L576 1152L576 1344L384 1344L384 1536L192 1536L192 1728L384 1728L384 1920L576 1920L576 1536L768 1536L768 1152M384 1920L192 1920L192 2112L384 2112L384 1920M768 1920L576 1920L576 2112L768 2112L768 1920M576 2112L384 2112L384 2304L576 2304L576 2112Z"  horiz-adv-x="1152" vert-adv-y="1536"  />

      
      <glyph glyph-name="uni27" unicode="&#x27;" d="M192 1920L0 1920L0 2304L192 2304L192 1920Z"  horiz-adv-x="384" vert-adv-y="1536"  />

      
      <glyph glyph-name="uni28" unicode="&#x28;" d="M768 960L384 960L384 1152L768 1152L768 960M384 1152L192 1152L192 1344L384 1344L384 1152M192 1344L0 1344L0 1920L192 1920L192 1344M384 1920L192 1920L192 2112L384 2112L384 1920M768 2112L384 2112L384 2304L768 2304L768 2112Z"  horiz-adv-x="960" vert-adv-y="1536"  />

      
      <glyph glyph-name="uni29" unicode="&#x29;" d="M384 960L0 960L0 1152L384 1152L384 960M576 1152L384 1152L384 1344L576 1344L576 1152M768 1344L576 1344L576 1920L768 1920L768 1344M576 1920L384 1920L384 2112L576 2112L576 1920M384 2112L0 2112L0 2304L384 2304L384 2112Z"  horiz-adv-x="960" vert-adv-y="1536"  />

      
      <glyph glyph-name="uni2a" unicode="&#x2a;" d="M192 1728L0 1728L0 1920L192 1920L192 1728M768 1728L576 1728L576 1920L768 1920L768 1728M576 1920L192 1920L192 2112L576 2112L576 1920M192 2112L0 2112L0 2304L192 2304L192 2112M768 2112L576 2112L576 2304L768 2304L768 2112Z"  horiz-adv-x="960" vert-adv-y="1536"  />

      
      <glyph glyph-name="uni2b" unicode="&#x2b;" d="M576 960L384 960L384 1344L0 1344L0 1536L384 1536L384 1920L576 1920L576 1536L960 1536L960 1344L576 1344L576 960Z"  horiz-adv-x="1152" vert-adv-y="1536"  />

      
      <glyph glyph-name="uni2c" unicode="&#x2c;" d="M192 768L0 768L0 1344L192 1344L192 768Z"  horiz-adv-x="384" vert-adv-y="1536"  />

      
      <glyph glyph-name="uni2d" unicode="&#x2d;" d="M960 1344L0 1344L0 1536L960 1536L960 1344Z"  horiz-adv-x="1152" vert-adv-y="1536"  />

      
      <glyph glyph-name="uni2e" unicode="&#x2e;" d="M192 960L0 960L0 1344L192 1344L192 960Z"  horiz-adv-x="384" vert-adv-y="1536"  />

      
      <glyph glyph-name="uni2f" unicode="&#x2f;" d="M192 960L0 960L0 1152L192 1152L192 960M384 1152L192 1152L192 1536L384 1536L384 1152M576 1536L384 1536L384 1728L576 1728L576 1536M768 1728L576 1728L576 2112L768 2112L768 1728M960 2112L768 2112L768 2304L960 2304L960 2112Z"  horiz-adv-x="1152" vert-adv-y="1536"  />

      
      <glyph glyph-name="uni30" unicode="&#x30;" d="M768 960L192 960L192 1152L768 1152L768 960M576 1536L384 1536L384 1728L576 1728L576 1536M192 1152L0 1152L0 2112L192 2112L192 1536L384 1536L384 1344L192 1344L192 1152M960 1152L768 1152L768 1728L576 1728L576 1920L768 1920L768 2112L960 2112L960 1152M768 2112L192 2112L192 2304L768 2304L768 2112Z"  horiz-adv-x="1152" vert-adv-y="1536"  />

      
      <glyph glyph-name="uni31" unicode="&#x31;" d="M608 937L0 929L0 1121L220 1121L220 1889L28 1889L28 2081L220 2081L220 2273L412 2273L412 1121L608 1121L608 937Z"  horiz-adv-x="1152" vert-adv-y="1536"  />

      
      <glyph glyph-name="uni32" unicode="&#x32;" d="M960 960L0 960L0 1344L192 1344L192 1152L960 1152L960 960M384 1344L192 1344L192 1536L384 1536L384 1344M768 1536L384 1536L384 1728L768 1728L768 1536M192 1920L0 1920L0 2112L192 2112L192 1920M960 1728L768 1728L768 2112L960 2112L960 1728M768 2112L192 2112L192 2304L768 2304L768 2112Z"  horiz-adv-x="1152" vert-adv-y="1536"  />

      
      <glyph glyph-name="uni33" unicode="&#x33;" d="M768 960L192 960L192 1152L768 1152L768 960M192 1152L0 1152L0 1344L192 1344L192 1152M960 1152L768 1152L768 1536L960 1536L960 1152M768 1536L384 1536L384 1728L768 1728L768 1536M192 1920L0 1920L0 2112L192 2112L192 1920M960 1728L768 1728L768 2112L960 2112L960 1728M768 2112L192 2112L192 2304L768 2304L768 2112Z"  horiz-adv-x="1152" vert-adv-y="1536"  />

      
      <glyph glyph-name="uni34" unicode="&#x34;" d="M384 1728L192 1728L192 1920L384 1920L384 1728M576 1920L384 1920L384 2112L576 2112L576 1920M960 960L768 960L768 1344L0 1344L0 1728L192 1728L192 1536L768 1536L768 2112L576 2112L576 2304L960 2304L960 960Z"  horiz-adv-x="1152" vert-adv-y="1536"  />

      
      <glyph glyph-name="uni35" unicode="&#x35;" d="M768 960L192 960L192 1152L768 1152L768 960M192 1152L0 1152L0 1344L192 1344L192 1152M960 1152L768 1152L768 1728L960 1728L960 1152M768 1728L0 1728L0 2304L960 2304L960 2112L192 2112L192 1920L768 1920L768 1728Z"  horiz-adv-x="1152" vert-adv-y="1536"  />

      
      <glyph glyph-name="uni36" unicode="&#x36;" d="M768 960L192 960L192 1152L768 1152L768 960M960 1152L768 1152L768 1536L960 1536L960 1152M192 1152L0 1152L0 1920L192 1920L192 1728L768 1728L768 1536L192 1536L192 1152M384 1920L192 1920L192 2112L384 2112L384 1920M768 2112L384 2112L384 2304L768 2304L768 2112Z"  horiz-adv-x="1152" vert-adv-y="1536"  />

      
      <glyph glyph-name="uni37" unicode="&#x37;" d="M576 960L384 960L384 1536L576 1536L576 960M768 1536L576 1536L576 1728L768 1728L768 1536M960 1728L768 1728L768 2112L192 2112L192 1920L0 1920L0 2304L960 2304L960 1728Z"  horiz-adv-x="1152" vert-adv-y="1536"  />

      
      <glyph glyph-name="uni38" unicode="&#x38;" d="M768 960L192 960L192 1152L768 1152L768 960M192 1152L0 1152L0 1536L192 1536L192 1152M960 1152L768 1152L768 1536L960 1536L960 1152M768 1536L192 1536L192 1728L768 1728L768 1536M192 1728L0 1728L0 2112L192 2112L192 1728M960 1728L768 1728L768 2112L960 2112L960 1728M768 2112L192 2112L192 2304L768 2304L768 2112Z"  horiz-adv-x="1152" vert-adv-y="1536"  />

      
      <glyph glyph-name="uni39" unicode="&#x39;" d="M576 960L192 960L192 1152L576 1152L576 960M768 1152L576 1152L576 1344L768 1344L768 1152M192 1728L0 1728L0 2112L192 2112L192 1728M960 1344L768 1344L768 1536L192 1536L192 1728L768 1728L768 2112L960 2112L960 1344M768 2112L192 2112L192 2304L768 2304L768 2112Z"  horiz-adv-x="1152" vert-adv-y="1536"  />

      
      <glyph glyph-name="uni3a" unicode="&#x3a;" d="M192 960L0 960L0 1344L192 1344L192 960M192 1728L0 1728L0 2112L192 2112L192 1728Z"  horiz-adv-x="384" vert-adv-y="1536"  />

      
      <glyph glyph-name="uni3b" unicode="&#x3b;" d="M192 768L0 768L0 1344L192 1344L192 768M192 1728L0 1728L0 2112L192 2112L192 1728Z"  horiz-adv-x="384" vert-adv-y="1536"  />

      
      <glyph glyph-name="uni3c" unicode="&#x3c;" d="M768 960L576 960L576 1152L768 1152L768 960M576 1152L384 1152L384 1344L576 1344L576 1152M384 1344L192 1344L192 1536L384 1536L384 1344M192 1536L0 1536L0 1728L192 1728L192 1536M384 1728L192 1728L192 1920L384 1920L384 1728M576 1920L384 1920L384 2112L576 2112L576 1920M768 2112L576 2112L576 2304L768 2304L768 2112Z"  horiz-adv-x="960" vert-adv-y="1536"  />

      
      <glyph glyph-name="uni3d" unicode="&#x3d;" d="M960 1152L0 1152L0 1344L960 1344L960 1152M960 1728L0 1728L0 1920L960 1920L960 1728Z"  horiz-adv-x="1152" vert-adv-y="1536"  />

      
      <glyph glyph-name="uni3e" unicode="&#x3e;" d="M192 960L0 960L0 1152L192 1152L192 960M384 1152L192 1152L192 1344L384 1344L384 1152M576 1344L384 1344L384 1536L576 1536L576 1344M768 1536L576 1536L576 1728L768 1728L768 1536M576 1728L384 1728L384 1920L576 1920L576 1728M384 1920L192 1920L192 2112L384 2112L384 1920M192 2112L0 2112L0 2304L192 2304L192 2112Z"  horiz-adv-x="960" vert-adv-y="1536"  />

      
      <glyph glyph-name="uni3f" unicode="&#x3f;" d="M576 960L384 960L384 1152L576 1152L576 960M576 1344L384 1344L384 1536L576 1536L576 1344M768 1536L576 1536L576 1728L768 1728L768 1536M192 1920L0 1920L0 2112L192 2112L192 1920M960 1728L768 1728L768 2112L960 2112L960 1728M768 2112L192 2112L192 2304L768 2304L768 2112Z"  horiz-adv-x="1152" vert-adv-y="1536"  />

      
      <glyph glyph-name="uni40" unicode="&#x40;" d="M1152 960L192 960L192 1152L1152 1152L1152 960M192 1152L0 1152L0 2112L192 2112L192 1152M1152 1344L384 1344L384 1920L768 1920L768 1536L960 1536L960 2112L1152 2112L1152 1344M960 2112L192 2112L192 2304L960 2304L960 2112Z"  horiz-adv-x="1344" vert-adv-y="1536"  />

      
      <glyph glyph-name="uni41" unicode="&#x41;" d="M192 960L0 960L0 2112L192 2112L192 1920L768 1920L768 2112L960 2112L960 960L768 960L768 1728L192 1728L192 960M768 2112L192 2112L192 2304L768 2304L768 2112Z"  horiz-adv-x="1152" vert-adv-y="1536"  />

      
      <glyph glyph-name="uni42" unicode="&#x42;" d="M960 1152L768 1152L768 1728L960 1728L960 1152M960 1920L768 1920L768 2112L960 2112L960 1920M768 960L0 960L0 2304L768 2304L768 2112L192 2112L192 1920L768 1920L768 1728L192 1728L192 1152L768 1152L768 960Z"  horiz-adv-x="1152" vert-adv-y="1536"  />

      
      <glyph glyph-name="uni43" unicode="&#x43;" d="M768 960L192 960L192 1152L768 1152L768 960M960 1152L768 1152L768 1344L960 1344L960 1152M192 1152L0 1152L0 2112L192 2112L192 1152M960 1920L768 1920L768 2112L960 2112L960 1920M768 2112L192 2112L192 2304L768 2304L768 2112Z"  horiz-adv-x="1152" vert-adv-y="1536"  />

      
      <glyph glyph-name="uni44" unicode="&#x44;" d="M960 1152L768 1152L768 2112L960 2112L960 1152M768 960L0 960L0 2304L768 2304L768 2112L192 2112L192 1152L768 1152L768 960Z"  horiz-adv-x="1152" vert-adv-y="1536"  />

      
      <glyph glyph-name="uni45" unicode="&#x45;" d="M960 960L0 960L0 2304L960 2304L960 2112L192 2112L192 1920L576 1920L576 1728L192 1728L192 1152L960 1152L960 960Z"  horiz-adv-x="1152" vert-adv-y="1536"  />

      
      <glyph glyph-name="uni46" unicode="&#x46;" d="M192 960L0 960L0 2304L960 2304L960 2112L192 2112L192 1920L576 1920L576 1728L192 1728L192 960Z"  horiz-adv-x="1152" vert-adv-y="1536"  />

      
      <glyph glyph-name="uni47" unicode="&#x47;" d="M768 960L192 960L192 1152L768 1152L768 960M960 1152L768 1152L768 1728L384 1728L384 1920L960 1920L960 1152M192 1152L0 1152L0 2112L192 2112L192 1152M960 2112L192 2112L192 2304L960 2304L960 2112Z"  horiz-adv-x="1152" vert-adv-y="1536"  />

      
      <glyph glyph-name="uni48" unicode="&#x48;" d="M192 960L0 960L0 2304L192 2304L192 1920L768 1920L768 2304L960 2304L960 960L768 960L768 1728L192 1728L192 960Z"  horiz-adv-x="1152" vert-adv-y="1536"  />

      
      <glyph glyph-name="uni49" unicode="&#x49;" d="M576 960L0 960L0 1152L192 1152L192 2112L0 2112L0 2304L576 2304L576 2112L384 2112L384 1152L576 1152L576 960Z"  horiz-adv-x="768" vert-adv-y="1536"  />

      
      <glyph glyph-name="uni4a" unicode="&#x4a;" d="M768 960L192 960L192 1152L768 1152L768 960M192 1152L0 1152L0 1344L192 1344L192 1152M960 1152L768 1152L768 2304L960 2304L960 1152Z"  horiz-adv-x="1152" vert-adv-y="1536"  />

      
      <glyph glyph-name="uni4b" unicode="&#x4b;" d="M960 960L768 960L768 1536L960 1536L960 960M768 1536L576 1536L576 1728L768 1728L768 1536M768 1920L576 1920L576 2112L768 2112L768 1920M192 960L0 960L0 2304L192 2304L192 1920L576 1920L576 1728L192 1728L192 960M960 2112L768 2112L768 2304L960 2304L960 2112Z"  horiz-adv-x="1152" vert-adv-y="1536"  />

      
      <glyph glyph-name="uni4c" unicode="&#x4c;" d="M960 960L0 960L0 2304L192 2304L192 1152L960 1152L960 960Z"  horiz-adv-x="1152" vert-adv-y="1536"  />

      
      <glyph glyph-name="uni4d" unicode="&#x4d;" d="M576 1728L384 1728L384 1920L576 1920L576 1728M192 960L0 960L0 2304L192 2304L192 2112L384 2112L384 1920L192 1920L192 960M960 960L768 960L768 1920L576 1920L576 2112L768 2112L768 2304L960 2304L960 960Z"  horiz-adv-x="1152" vert-adv-y="1536"  />

      
      <glyph glyph-name="uni4e" unicode="&#x4e;" d="M576 1728L384 1728L384 1920L576 1920L576 1728M192 960L0 960L0 2304L192 2304L192 2112L384 2112L384 1920L192 1920L192 960M960 960L768 960L768 1536L576 1536L576 1728L768 1728L768 2304L960 2304L960 960Z"  horiz-adv-x="1152" vert-adv-y="1536"  />

      
      <glyph glyph-name="uni4f" unicode="&#x4f;" d="M768 960L192 960L192 1152L768 1152L768 960M192 1152L0 1152L0 2112L192 2112L192 1152M960 1152L768 1152L768 2112L960 2112L960 1152M768 2112L192 2112L192 2304L768 2304L768 2112Z"  horiz-adv-x="1152" vert-adv-y="1536"  />

      
      <glyph glyph-name="uni50" unicode="&#x50;" d="M960 1920L768 1920L768 2112L960 2112L960 1920M192 960L0 960L0 2304L768 2304L768 2112L192 2112L192 1920L768 1920L768 1728L192 1728L192 960Z"  horiz-adv-x="1152" vert-adv-y="1536"  />

      
      <glyph glyph-name="uni51" unicode="&#x51;" d="M576 960L192 960L192 1152L576 1152L576 960M960 960L768 960L768 1152L960 1152L960 960M768 1152L576 1152L576 1344L768 1344L768 1152M192 1152L0 1152L0 2112L192 2112L192 1152M960 1344L768 1344L768 2112L960 2112L960 1344M768 2112L192 2112L192 2304L768 2304L768 2112Z"  horiz-adv-x="1152" vert-adv-y="1536"  />

      
      <glyph glyph-name="uni52" unicode="&#x52;" d="M960 960L768 960L768 1728L960 1728L960 960M960 1920L768 1920L768 2112L960 2112L960 1920M192 960L0 960L0 2304L768 2304L768 2112L192 2112L192 1920L768 1920L768 1728L192 1728L192 960Z"  horiz-adv-x="1152" vert-adv-y="1536"  />

      
      <glyph glyph-name="uni53" unicode="&#x53;" d="M768 960L192 960L192 1152L768 1152L768 960M192 1152L0 1152L0 1344L192 1344L192 1152M960 1152L768 1152L768 1728L960 1728L960 1152M768 1728L192 1728L192 1920L768 1920L768 1728M192 1920L0 1920L0 2112L192 2112L192 1920M960 2112L192 2112L192 2304L960 2304L960 2112Z"  horiz-adv-x="1152" vert-adv-y="1536"  />

      
      <glyph glyph-name="uni54" unicode="&#x54;" d="M576 960L384 960L384 2112L0 2112L0 2304L960 2304L960 2112L576 2112L576 960Z"  horiz-adv-x="1152" vert-adv-y="1536"  />

      
      <glyph glyph-name="uni55" unicode="&#x55;" d="M768 960L192 960L192 1152L768 1152L768 960M192 1152L0 1152L0 2304L192 2304L192 1152M960 1152L768 1152L768 2304L960 2304L960 1152Z"  horiz-adv-x="1152" vert-adv-y="1536"  />

      
      <glyph glyph-name="uni56" unicode="&#x56;" d="M576 960L384 960L384 1152L576 1152L576 960M384 1152L192 1152L192 1536L384 1536L384 1152M768 1152L576 1152L576 1536L768 1536L768 1152M192 1536L0 1536L0 2304L192 2304L192 1536M960 1536L768 1536L768 2304L960 2304L960 1536Z"  horiz-adv-x="1152" vert-adv-y="1536"  />

      
      <glyph glyph-name="uni57" unicode="&#x57;" d="M576 1344L384 1344L384 1536L576 1536L576 1344M192 960L0 960L0 2304L192 2304L192 1344L384 1344L384 1152L192 1152L192 960M960 960L768 960L768 1152L576 1152L576 1344L768 1344L768 2304L960 2304L960 960Z"  horiz-adv-x="1152" vert-adv-y="1536"  />

      
      <glyph glyph-name="uni58" unicode="&#x58;" d="M192 960L0 960L0 1536L192 1536L192 960M960 960L768 960L768 1536L960 1536L960 960M384 1536L192 1536L192 1728L384 1728L384 1536M768 1536L576 1536L576 1728L768 1728L768 1536M576 1728L384 1728L384 1920L576 1920L576 1728M384 1920L192 1920L192 2112L384 2112L384 1920M768 1920L576 1920L576 2112L768 2112L768 1920M192 2112L0 2112L0 2304L192 2304L192 2112M960 2112L768 2112L768 2304L960 2304L960 2112Z"  horiz-adv-x="1152" vert-adv-y="1536"  />

      
      <glyph glyph-name="uni59" unicode="&#x59;" d="M576 960L384 960L384 1920L576 1920L576 960M384 1920L192 1920L192 2112L384 2112L384 1920M768 1920L576 1920L576 2112L768 2112L768 1920M192 2112L0 2112L0 2304L192 2304L192 2112M960 2112L768 2112L768 2304L960 2304L960 2112Z"  horiz-adv-x="1152" vert-adv-y="1536"  />

      
      <glyph glyph-name="uni5a" unicode="&#x5a;" d="M960 960L0 960L0 1344L192 1344L192 1152L960 1152L960 960M384 1344L192 1344L192 1536L384 1536L384 1344M576 1536L384 1536L384 1728L576 1728L576 1536M768 1728L576 1728L576 1920L768 1920L768 1728M960 1920L768 1920L768 2112L0 2112L0 2304L960 2304L960 1920Z"  horiz-adv-x="1152" vert-adv-y="1536"  />

      
      <glyph glyph-name="uni5b" unicode="&#x5b;" d="M576 960L0 960L0 2304L576 2304L576 2112L192 2112L192 1152L576 1152L576 960Z"  horiz-adv-x="768" vert-adv-y="1536"  />

      
      <glyph glyph-name="uni5c" unicode="&#x5c;" d="M960 960L768 960L768 1152L960 1152L960 960M768 1152L576 1152L576 1536L768 1536L768 1152M576 1536L384 1536L384 1728L576 1728L576 1536M384 1728L192 1728L192 2112L384 2112L384 1728M192 2112L0 2112L0 2304L192 2304L192 2112Z"  horiz-adv-x="1152" vert-adv-y="1536"  />

      
      <glyph glyph-name="uni5d" unicode="&#x5d;" d="M576 960L0 960L0 1152L384 1152L384 2112L0 2112L0 2304L576 2304L576 960Z"  horiz-adv-x="768" vert-adv-y="1536"  />

      
      <glyph glyph-name="uni5e" unicode="&#x5e;" d="M192 1728L0 1728L0 1920L192 1920L192 1728M960 1728L768 1728L768 1920L960 1920L960 1728M384 1920L192 1920L192 2112L384 2112L384 1920M768 1920L576 1920L576 2112L768 2112L768 1920M576 2112L384 2112L384 2304L576 2304L576 2112Z"  horiz-adv-x="1152" vert-adv-y="1536"  />

      
      <glyph glyph-name="uni5f" unicode="&#x5f;" d="M960 768L0 768L0 960L960 960L960 768Z"  horiz-adv-x="1152" vert-adv-y="1536"  />

      
      <glyph glyph-name="uni60" unicode="&#x60;" d="M384 2112L192 2112L192 2304L384 2304L384 2112M192 2304L0 2304L0 2496L192 2496L192 2304Z"  horiz-adv-x="576" vert-adv-y="1536"  />

      
      <glyph glyph-name="uni61" unicode="&#x61;" d="M192 1152L0 1152L0 1344L192 1344L192 1152M960 960L192 960L192 1152L768 1152L768 1344L192 1344L192 1536L768 1536L768 1728L960 1728L960 960M768 1728L192 1728L192 1920L768 1920L768 1728Z"  horiz-adv-x="1152" vert-adv-y="1536"  />

      
      <glyph glyph-name="uni62" unicode="&#x62;" d="M960 1152L768 1152L768 1728L960 1728L960 1152M768 1728L384 1728L384 1920L768 1920L768 1728M768 960L0 960L0 2304L192 2304L192 1728L384 1728L384 1536L192 1536L192 1152L768 1152L768 960Z"  horiz-adv-x="1152" vert-adv-y="1536"  />

      
      <glyph glyph-name="uni63" unicode="&#x63;" d="M768 960L192 960L192 1152L768 1152L768 960M960 1152L768 1152L768 1344L960 1344L960 1152M192 1152L0 1152L0 1728L192 1728L192 1152M960 1536L768 1536L768 1728L960 1728L960 1536M768 1728L192 1728L192 1920L768 1920L768 1728Z"  horiz-adv-x="1152" vert-adv-y="1536"  />

      
      <glyph glyph-name="uni64" unicode="&#x64;" d="M192 1152L0 1152L0 1728L192 1728L192 1152M576 1728L192 1728L192 1920L576 1920L576 1728M960 960L192 960L192 1152L768 1152L768 1536L576 1536L576 1728L768 1728L768 2304L960 2304L960 960Z"  horiz-adv-x="1152" vert-adv-y="1536"  />

      
      <glyph glyph-name="uni65" unicode="&#x65;" d="M960 960L192 960L192 1152L960 1152L960 960M192 1152L0 1152L0 1728L192 1728L192 1536L768 1536L768 1728L960 1728L960 1344L192 1344L192 1152M768 1728L192 1728L192 1920L768 1920L768 1728Z"  horiz-adv-x="1152" vert-adv-y="1536"  />

      
      <glyph glyph-name="uni66" unicode="&#x66;" d="M384 960L192 960L192 1728L0 1728L0 1920L192 1920L192 2112L384 2112L384 1920L768 1920L768 1728L384 1728L384 960M768 2112L384 2112L384 2304L768 2304L768 2112Z"  horiz-adv-x="960" vert-adv-y="1536"  />

      
      <glyph glyph-name="uni67" unicode="&#x67;" d="M768 768L0 768L0 960L768 960L768 768M192 1344L0 1344L0 1728L192 1728L192 1344M960 960L768 960L768 1152L192 1152L192 1344L768 1344L768 1728L192 1728L192 1920L960 1920L960 960Z"  horiz-adv-x="1152" vert-adv-y="1536"  />

      
      <glyph glyph-name="uni68" unicode="&#x68;" d="M960 960L768 960L768 1728L960 1728L960 960M768 1728L384 1728L384 1920L768 1920L768 1728M192 960L0 960L0 2304L192 2304L192 1728L384 1728L384 1536L192 1536L192 960Z"  horiz-adv-x="1152" vert-adv-y="1536"  />

      
      <glyph glyph-name="uni69" unicode="&#x69;" d="M192 960L0 960L0 1920L192 1920L192 960M192 2112L0 2112L0 2304L192 2304L192 2112Z"  horiz-adv-x="384" vert-adv-y="1536"  />

      
      <glyph glyph-name="uni6a" unicode="&#x6a;" d="M768 768L192 768L192 960L768 960L768 768M192 960L0 960L0 1344L192 1344L192 960M960 960L768 960L768 1920L960 1920L960 960M960 2112L768 2112L768 2304L960 2304L960 2112Z"  horiz-adv-x="1152" vert-adv-y="1536"  />

      
      <glyph glyph-name="uni6b" unicode="&#x6b;" d="M768 960L576 960L576 1152L768 1152L768 960M576 1152L384 1152L384 1344L576 1344L576 1152M576 1536L384 1536L384 1728L576 1728L576 1536M768 1728L576 1728L576 1920L768 1920L768 1728M192 960L0 960L0 2304L192 2304L192 1536L384 1536L384 1344L192 1344L192 960Z"  horiz-adv-x="960" vert-adv-y="1536"  />

      
      <glyph glyph-name="uni6c" unicode="&#x6c;" d="M384 960L192 960L192 1152L384 1152L384 960M192 1152L0 1152L0 2304L192 2304L192 1152Z"  horiz-adv-x="576" vert-adv-y="1536"  />

      
      <glyph glyph-name="uni6d" unicode="&#x6d;" d="M576 1344L384 1344L384 1728L576 1728L576 1344M960 960L768 960L768 1728L960 1728L960 960M192 960L0 960L0 1920L384 1920L384 1728L192 1728L192 960M768 1728L576 1728L576 1920L768 1920L768 1728Z"  horiz-adv-x="1152" vert-adv-y="1536"  />

      
      <glyph glyph-name="uni6e" unicode="&#x6e;" d="M960 960L768 960L768 1728L960 1728L960 960M192 960L0 960L0 1920L768 1920L768 1728L192 1728L192 960Z"  horiz-adv-x="1152" vert-adv-y="1536"  />

      
      <glyph glyph-name="uni6f" unicode="&#x6f;" d="M768 960L192 960L192 1152L768 1152L768 960M192 1152L0 1152L0 1728L192 1728L192 1152M960 1152L768 1152L768 1728L960 1728L960 1152M768 1728L192 1728L192 1920L768 1920L768 1728Z"  horiz-adv-x="1152" vert-adv-y="1536"  />

      
      <glyph glyph-name="uni70" unicode="&#x70;" d="M960 1344L768 1344L768 1728L960 1728L960 1344M192 768L0 768L0 1920L192 1920L192 1728L384 1728L384 1536L192 1536L192 1344L768 1344L768 1152L192 1152L192 768M768 1728L384 1728L384 1920L768 1920L768 1728Z"  horiz-adv-x="1152" vert-adv-y="1536"  />

      
      <glyph glyph-name="uni71" unicode="&#x71;" d="M192 1344L0 1344L0 1728L192 1728L192 1344M576 1728L192 1728L192 1920L576 1920L576 1728M960 768L768 768L768 1152L192 1152L192 1344L768 1344L768 1536L576 1536L576 1728L768 1728L768 1920L960 1920L960 768Z"  horiz-adv-x="1152" vert-adv-y="1536"  />

      
      <glyph glyph-name="uni72" unicode="&#x72;" d="M960 1536L768 1536L768 1728L960 1728L960 1536M192 960L0 960L0 1920L192 1920L192 1728L384 1728L384 1536L192 1536L192 960M768 1728L384 1728L384 1920L768 1920L768 1728Z"  horiz-adv-x="1152" vert-adv-y="1536"  />

      
      <glyph glyph-name="uni73" unicode="&#x73;" d="M768 960L0 960L0 1152L768 1152L768 960M960 1152L768 1152L768 1344L960 1344L960 1152M768 1344L192 1344L192 1536L768 1536L768 1344M192 1536L0 1536L0 1728L192 1728L192 1536M960 1728L192 1728L192 1920L960 1920L960 1728Z"  horiz-adv-x="1152" vert-adv-y="1536"  />

      
      <glyph glyph-name="uni74" unicode="&#x74;" d="M576 960L384 960L384 1152L576 1152L576 960M384 1152L192 1152L192 1920L0 1920L0 2112L192 2112L192 2304L384 2304L384 2112L576 2112L576 1920L384 1920L384 1152Z"  horiz-adv-x="768" vert-adv-y="1536"  />

      
      <glyph glyph-name="uni75" unicode="&#x75;" d="M192 1152L0 1152L0 1920L192 1920L192 1152M960 960L192 960L192 1152L768 1152L768 1920L960 1920L960 960Z"  horiz-adv-x="1152" vert-adv-y="1536"  />

      
      <glyph glyph-name="uni76" unicode="&#x76;" d="M576 960L384 960L384 1152L576 1152L576 960M384 1152L192 1152L192 1344L384 1344L384 1152M768 1152L576 1152L576 1344L768 1344L768 1152M192 1344L0 1344L0 1920L192 1920L192 1344M960 1344L768 1344L768 1920L960 1920L960 1344Z"  horiz-adv-x="1152" vert-adv-y="1536"  />

      
      <glyph glyph-name="uni77" unicode="&#x77;" d="M192 1152L0 1152L0 1920L192 1920L192 1152M960 960L192 960L192 1152L384 1152L384 1536L576 1536L576 1152L768 1152L768 1920L960 1920L960 960Z"  horiz-adv-x="1152" vert-adv-y="1536"  />

      
      <glyph glyph-name="uni78" unicode="&#x78;" d="M192 960L0 960L0 1152L192 1152L192 960M960 960L768 960L768 1152L960 1152L960 960M384 1152L192 1152L192 1344L384 1344L384 1152M768 1152L576 1152L576 1344L768 1344L768 1152M576 1344L384 1344L384 1536L576 1536L576 1344M384 1536L192 1536L192 1728L384 1728L384 1536M768 1536L576 1536L576 1728L768 1728L768 1536M192 1728L0 1728L0 1920L192 1920L192 1728M960 1728L768 1728L768 1920L960 1920L960 1728Z"  horiz-adv-x="1152" vert-adv-y="1536"  />

      
      <glyph glyph-name="uni79" unicode="&#x79;" d="M768 768L0 768L0 960L768 960L768 768M192 1344L0 1344L0 1920L192 1920L192 1344M960 960L768 960L768 1152L192 1152L192 1344L768 1344L768 1920L960 1920L960 960Z"  horiz-adv-x="1152" vert-adv-y="1536"  />

      
      <glyph glyph-name="uni7a" unicode="&#x7a;" d="M960 960L0 960L0 1152L192 1152L192 1344L384 1344L384 1152L960 1152L960 960M576 1344L384 1344L384 1536L576 1536L576 1344M768 1536L576 1536L576 1728L0 1728L0 1920L960 1920L960 1728L768 1728L768 1536Z"  horiz-adv-x="1152" vert-adv-y="1536"  />

      
      <glyph glyph-name="uni7b" unicode="&#x7b;" d="M768 960L384 960L384 1152L768 1152L768 960M384 1152L192 1152L192 1536L384 1536L384 1152M192 1536L0 1536L0 1728L192 1728L192 1536M384 1728L192 1728L192 2112L384 2112L384 1728M768 2112L384 2112L384 2304L768 2304L768 2112Z"  horiz-adv-x="960" vert-adv-y="1536"  />

      
      <glyph glyph-name="uni7c" unicode="&#x7c;" d="M192 768L0 768L0 2304L192 2304L192 768Z"  horiz-adv-x="384" vert-adv-y="1536"  />

      
      <glyph glyph-name="uni7d" unicode="&#x7d;" d="M384 960L0 960L0 1152L384 1152L384 960M576 1152L384 1152L384 1536L576 1536L576 1152M768 1536L576 1536L576 1728L768 1728L768 1536M576 1728L384 1728L384 2112L576 2112L576 1728M384 2112L0 2112L0 2304L384 2304L384 2112Z"  horiz-adv-x="960" vert-adv-y="1536"  />

      
      <glyph glyph-name="uni7e" unicode="&#x7e;" d="M192 1920L0 1920L0 2112L192 2112L192 1920M960 1920L576 1920L576 2112L960 2112L960 1920M576 2112L192 2112L192 2304L576 2304L576 2112M1152 2112L960 2112L960 2304L1152 2304L1152 2112Z"  horiz-adv-x="1344" vert-adv-y="1536"  />

      
      <glyph glyph-name="unia1" unicode="&#xa1;" d="M192 960L0 960L0 1920L192 1920L192 960M192 2112L0 2112L0 2304L192 2304L192 2112Z"  horiz-adv-x="384" vert-adv-y="1536"  />

      
      <glyph glyph-name="unia2" unicode="&#xa2;" d="M576 960L384 960L384 1152L192 1152L192 1344L768 1344L768 1152L576 1152L576 960M192 1344L0 1344L0 1536L192 1536L192 1344M768 1536L192 1536L192 1728L384 1728L384 1920L576 1920L576 1728L768 1728L768 1536Z"  horiz-adv-x="960" vert-adv-y="1536"  />

      
      <glyph glyph-name="unia3" unicode="&#xa3;" d="M960 960L0 960L0 1152L192 1152L192 1536L0 1536L0 1728L192 1728L192 2112L384 2112L384 1728L768 1728L768 1536L384 1536L384 1152L960 1152L960 960M960 2112L384 2112L384 2304L960 2304L960 2112Z"  horiz-adv-x="1152" vert-adv-y="1536"  />

      
      <glyph glyph-name="unia4" unicode="&#xa4;" d="M192 1152L0 1152L0 1344L192 1344L192 1152M960 1152L768 1152L768 1344L960 1344L960 1152M384 1536L576 1536L576 1728L384 1728L384 1536M768 1344L192 1344L192 1920L768 1920L768 1344M192 1920L0 1920L0 2112L192 2112L192 1920M960 1920L768 1920L768 2112L960 2112L960 1920Z"  horiz-adv-x="1152" vert-adv-y="1536"  />

      
      <glyph glyph-name="unia5" unicode="&#xa5;" d="M576 960L384 960L384 1152L192 1152L192 1344L384 1344L384 1536L192 1536L192 1728L384 1728L384 1920L576 1920L576 1728L768 1728L768 1536L576 1536L576 1344L768 1344L768 1152L576 1152L576 960M384 1920L192 1920L192 2112L384 2112L384 1920M768 1920L576 1920L576 2112L768 2112L768 1920M192 2112L0 2112L0 2304L192 2304L192 2112M960 2112L768 2112L768 2304L960 2304L960 2112Z"  horiz-adv-x="1152" vert-adv-y="1536"  />

      
      <glyph glyph-name="unia6" unicode="&#xa6;" d="M192 960L0 960L0 1536L192 1536L192 960M192 1728L0 1728L0 2304L192 2304L192 1728Z"  horiz-adv-x="384" vert-adv-y="1536"  />

      
      <glyph glyph-name="unia7" unicode="&#xa7;" d="M768 960L0 960L0 1152L768 1152L768 960M960 1152L768 1152L768 1344L960 1344L960 1152M768 1344L192 1344L192 1536L768 1536L768 1344M192 1536L0 1536L0 1728L192 1728L192 1536M960 1536L768 1536L768 1728L960 1728L960 1536M768 1728L192 1728L192 1920L768 1920L768 1728M192 1920L0 1920L0 2112L192 2112L192 1920M960 2112L192 2112L192 2304L960 2304L960 2112Z"  horiz-adv-x="1152" vert-adv-y="1536"  />

      
      <glyph glyph-name="unia8" unicode="&#xa8;" d="M384 2112L192 2112L192 2304L384 2304L384 2112M768 2112L576 2112L576 2304L768 2304L768 2112Z"  horiz-adv-x="960" vert-adv-y="1536"  />

      
      <glyph glyph-name="unia9" unicode="&#xa9;" d="M1152 960L192 960L192 1152L1152 1152L1152 960M960 1344L576 1344L576 1536L960 1536L960 1344M576 1536L384 1536L384 1728L576 1728L576 1536M960 1728L576 1728L576 1920L960 1920L960 1728M192 1152L0 1152L0 2112L192 2112L192 1152M1344 1152L1152 1152L1152 2112L1344 2112L1344 1152M1152 2112L192 2112L192 2304L1152 2304L1152 2112Z"  horiz-adv-x="1536" vert-adv-y="1536"  />

      
      <glyph glyph-name="uniaa" unicode="&#xaa;" d="M576 1152L0 1152L0 1344L576 1344L576 1152M192 1728L0 1728L0 1920L192 1920L192 1728M576 1536L192 1536L192 1728L384 1728L384 1920L192 1920L192 2112L0 2112L0 2304L384 2304L384 2112L576 2112L576 1536Z"  horiz-adv-x="768" vert-adv-y="1536"  />

      
      <glyph glyph-name="uniab" unicode="&#xab;" d="M384 960L192 960L192 1152L384 1152L384 960M768 960L576 960L576 1152L768 1152L768 960M192 1152L0 1152L0 1536L192 1536L192 1152M576 1152L384 1152L384 1536L576 1536L576 1152M384 1536L192 1536L192 1728L384 1728L384 1536M768 1536L576 1536L576 1728L768 1728L768 1536Z"  horiz-adv-x="960" vert-adv-y="1536"  />

      
      <glyph glyph-name="uniac" unicode="&#xac;" d="M768 1344L576 1344L576 1728L0 1728L0 1920L768 1920L768 1344Z"  horiz-adv-x="960" vert-adv-y="1536"  />

      
      <glyph glyph-name="uniae" unicode="&#xae;" d="M1152 960L192 960L192 1152L1152 1152L1152 960M960 1344L768 1344L768 1536L960 1536L960 1344M576 1344L384 1344L384 1920L960 1920L960 1728L768 1728L768 1536L576 1536L576 1344M192 1152L0 1152L0 2112L192 2112L192 1152M1344 1152L1152 1152L1152 2112L1344 2112L1344 1152M1152 2112L192 2112L192 2304L1152 2304L1152 2112Z"  horiz-adv-x="1536" vert-adv-y="1536"  />

      
      <glyph glyph-name="uniaf" unicode="&#xaf;" d="M960 2112L0 2112L0 2304L960 2304L960 2112Z"  horiz-adv-x="1152" vert-adv-y="1536"  />

      
      <glyph glyph-name="unib0" unicode="&#xb0;" d="M384 1728L192 1728L192 1920L384 1920L384 1728M192 1920L0 1920L0 2112L192 2112L192 1920M576 1920L384 1920L384 2112L576 2112L576 1920M384 2112L192 2112L192 2304L384 2304L384 2112Z"  horiz-adv-x="768" vert-adv-y="1536"  />

      
      <glyph glyph-name="unib1" unicode="&#xb1;" d="M960 960L0 960L0 1152L960 1152L960 960M576 1344L384 1344L384 1728L0 1728L0 1920L384 1920L384 2304L576 2304L576 1920L960 1920L960 1728L576 1728L576 1344Z"  horiz-adv-x="1152" vert-adv-y="1536"  />

      
      <glyph glyph-name="unib2" unicode="&#xb2;" d="M576 1536L0 1536L0 1728L192 1728L192 1920L384 1920L384 1728L576 1728L576 1536M576 1920L384 1920L384 2112L576 2112L576 1920M384 2112L0 2112L0 2304L384 2304L384 2112Z"  horiz-adv-x="768" vert-adv-y="1536"  />

      
      <glyph glyph-name="unib3" unicode="&#xb3;" d="M384 1536L0 1536L0 1728L384 1728L384 1536M576 1728L384 1728L384 1920L192 1920L192 2112L0 2112L0 2304L384 2304L384 2112L576 2112L576 1728Z"  horiz-adv-x="768" vert-adv-y="1536"  />

      
      <glyph glyph-name="unib4" unicode="&#xb4;" d="M192 2112L0 2112L0 2304L192 2304L192 2112M384 2304L192 2304L192 2496L384 2496L384 2304Z"  horiz-adv-x="576" vert-adv-y="1536"  />

      
      <glyph glyph-name="unib5" unicode="&#xb5;" d="M192 768L0 768L0 1920L192 1920L192 1152L576 1152L576 960L192 960L192 768M960 960L768 960L768 1152L576 1152L576 1344L768 1344L768 1920L960 1920L960 960Z"  horiz-adv-x="1152" vert-adv-y="1536"  />

      
      <glyph glyph-name="unib6" unicode="&#xb6;" d="M960 960L768 960L768 2112L576 2112L576 1536L192 1536L192 1728L0 1728L0 2112L192 2112L192 2304L960 2304L960 960Z"  horiz-adv-x="1152" vert-adv-y="1536"  />

      
      <glyph glyph-name="unib7" unicode="&#xb7;" d="M192 1344L0 1344L0 1536L192 1536L192 1344Z"  horiz-adv-x="384" vert-adv-y="1536"  />

      
      <glyph glyph-name="unib8" unicode="&#xb8;" d="M576 576L192 576L192 768L384 768L384 960L576 960L576 576Z"  horiz-adv-x="768" vert-adv-y="1536"  />

      
      <glyph glyph-name="unib9" unicode="&#xb9;" d="M576 1536L0 1536L0 1728L192 1728L192 1920L0 1920L0 2112L192 2112L192 2304L384 2304L384 1728L576 1728L576 1536Z"  horiz-adv-x="768" vert-adv-y="1536"  />

      
      <glyph glyph-name="uniba" unicode="&#xba;" d="M576 1152L0 1152L0 1344L576 1344L576 1152M384 1536L192 1536L192 1728L384 1728L384 1536M192 1728L0 1728L0 2112L192 2112L192 1728M576 1728L384 1728L384 2112L576 2112L576 1728M384 2112L192 2112L192 2304L384 2304L384 2112Z"  horiz-adv-x="768" vert-adv-y="1536"  />

      
      <glyph glyph-name="unibb" unicode="&#xbb;" d="M192 960L0 960L0 1152L192 1152L192 960M576 960L384 960L384 1152L576 1152L576 960M384 1152L192 1152L192 1536L384 1536L384 1152M768 1152L576 1152L576 1536L768 1536L768 1152M192 1536L0 1536L0 1728L192 1728L192 1536M576 1536L384 1536L384 1728L576 1728L576 1536Z"  horiz-adv-x="960" vert-adv-y="1536"  />

      
      <glyph glyph-name="unibc" unicode="&#xbc;" d="M576 960L384 960L384 1152L576 1152L576 960M768 1152L576 1152L576 1536L768 1536L768 1152M960 1536L768 1536L768 1728L960 1728L960 1536M1536 960L1344 960L1344 1152L960 1152L960 1536L1152 1536L1152 1344L1344 1344L1344 1536L1152 1536L1152 1728L1536 1728L1536 960M1152 1728L960 1728L960 2112L1152 2112L1152 1728M576 1536L0 1536L0 1728L192 1728L192 1920L0 1920L0 2112L192 2112L192 2304L384 2304L384 1728L576 1728L576 1536M1344 2112L1152 2112L1152 2304L1344 2304L1344 2112Z"  horiz-adv-x="1728" vert-adv-y="1536"  />

      
      <glyph glyph-name="unibd" unicode="&#xbd;" d="M576 960L384 960L384 1152L576 1152L576 960M1536 960L960 960L960 1152L1152 1152L1152 1344L1344 1344L1344 1152L1536 1152L1536 960M768 1152L576 1152L576 1536L768 1536L768 1152M1536 1344L1344 1344L1344 1536L1536 1536L1536 1344M1344 1536L768 1536L768 1728L960 1728L960 2112L1152 2112L1152 1728L1344 1728L1344 1536M576 1536L0 1536L0 1728L192 1728L192 1920L0 1920L0 2112L192 2112L192 2304L384 2304L384 1728L576 1728L576 1536M1344 2112L1152 2112L1152 2304L1344 2304L1344 2112Z"  horiz-adv-x="1728" vert-adv-y="1536"  />

      
      <glyph glyph-name="unibe" unicode="&#xbe;" d="M576 960L384 960L384 1152L576 1152L576 960M768 1152L576 1152L576 1536L768 1536L768 1152M384 1536L0 1536L0 1728L384 1728L384 1536M960 1536L768 1536L768 1728L960 1728L960 1536M1536 960L1344 960L1344 1152L960 1152L960 1536L1152 1536L1152 1344L1344 1344L1344 1536L1152 1536L1152 1728L1536 1728L1536 960M1152 1728L960 1728L960 2112L1152 2112L1152 1728M576 1728L384 1728L384 1920L192 1920L192 2112L0 2112L0 2304L384 2304L384 2112L576 2112L576 1728M1344 2112L1152 2112L1152 2304L1344 2304L1344 2112Z"  horiz-adv-x="1728" vert-adv-y="1536"  />

      
      <glyph glyph-name="unibf" unicode="&#xbf;" d="M768 960L192 960L192 1152L768 1152L768 960M960 1152L768 1152L768 1344L960 1344L960 1152M192 1152L0 1152L0 1536L192 1536L192 1152M384 1536L192 1536L192 1728L384 1728L384 1536M576 1728L384 1728L384 1920L576 1920L576 1728M576 2112L384 2112L384 2304L576 2304L576 2112Z"  horiz-adv-x="1152" vert-adv-y="1536"  />

      
      <glyph glyph-name="unic0" unicode="&#xc0;" d="M192 960L0 960L0 2112L192 2112L192 1920L768 1920L768 2112L960 2112L960 960L768 960L768 1728L192 1728L192 960M768 2112L192 2112L192 2304L384 2304L384 2496L576 2496L576 2304L768 2304L768 2112M384 2496L192 2496L192 2688L384 2688L384 2496Z"  horiz-adv-x="1152" vert-adv-y="1536"  />

      
      <glyph glyph-name="unic1" unicode="&#xc1;" d="M192 960L0 960L0 2112L192 2112L192 1920L768 1920L768 2112L960 2112L960 960L768 960L768 1728L192 1728L192 960M768 2112L192 2112L192 2304L384 2304L384 2496L576 2496L576 2304L768 2304L768 2112M768 2496L576 2496L576 2688L768 2688L768 2496Z"  horiz-adv-x="1152" vert-adv-y="1536"  />

      
      <glyph glyph-name="unic2" unicode="&#xc2;" d="M192 960L0 960L0 2112L192 2112L192 1920L768 1920L768 2112L960 2112L960 960L768 960L768 1728L192 1728L192 960M768 2112L192 2112L192 2496L384 2496L384 2304L576 2304L576 2496L768 2496L768 2112M576 2496L384 2496L384 2688L576 2688L576 2496Z"  horiz-adv-x="1152" vert-adv-y="1536"  />

      
      <glyph glyph-name="unic3" unicode="&#xc3;" d="M192 960L0 960L0 2112L192 2112L192 1920L768 1920L768 2112L960 2112L960 960L768 960L768 1728L192 1728L192 960M192 2304L0 2304L0 2496L192 2496L192 2304M768 2112L192 2112L192 2304L384 2304L384 2496L192 2496L192 2688L576 2688L576 2496L768 2496L768 2112M960 2496L768 2496L768 2688L960 2688L960 2496Z"  horiz-adv-x="1152" vert-adv-y="1536"  />

      
      <glyph glyph-name="unic4" unicode="&#xc4;" d="M192 960L0 960L0 2112L192 2112L192 1920L768 1920L768 2112L960 2112L960 960L768 960L768 1728L192 1728L192 960M768 2112L192 2112L192 2304L768 2304L768 2112M384 2496L192 2496L192 2688L384 2688L384 2496M768 2496L576 2496L576 2688L768 2688L768 2496Z"  horiz-adv-x="1152" vert-adv-y="1536"  />

      
      <glyph glyph-name="unic5" unicode="&#xc5;" d="M192 960L0 960L0 2112L192 2112L192 1920L768 1920L768 2112L960 2112L960 960L768 960L768 1728L192 1728L192 960M384 2304L576 2304L576 2496L384 2496L384 2304M768 2112L192 2112L192 2688L768 2688L768 2112Z"  horiz-adv-x="1152" vert-adv-y="1536"  />

      
      <glyph glyph-name="unic6" unicode="&#xc6;" d="M192 960L0 960L0 2112L192 2112L192 1920L768 1920L768 2112L192 2112L192 2304L1728 2304L1728 2112L960 2112L960 1920L1344 1920L1344 1728L960 1728L960 1152L1728 1152L1728 960L768 960L768 1728L192 1728L192 960Z"  horiz-adv-x="1920" vert-adv-y="1536"  />

      
      <glyph glyph-name="unic7" unicode="&#xc7;" d="M576 576L192 576L192 768L384 768L384 960L192 960L192 1152L768 1152L768 960L576 960L576 576M960 1152L768 1152L768 1344L960 1344L960 1152M192 1152L0 1152L0 2112L192 2112L192 1152M960 1920L768 1920L768 2112L960 2112L960 1920M768 2112L192 2112L192 2304L768 2304L768 2112Z"  horiz-adv-x="1152" vert-adv-y="1536"  />

      
      <glyph glyph-name="unic8" unicode="&#xc8;" d="M960 960L0 960L0 2304L384 2304L384 2496L576 2496L576 2304L960 2304L960 2112L192 2112L192 1920L576 1920L576 1728L192 1728L192 1152L960 1152L960 960M384 2496L192 2496L192 2688L384 2688L384 2496Z"  horiz-adv-x="1152" vert-adv-y="1536"  />

      
      <glyph glyph-name="unic9" unicode="&#xc9;" d="M960 960L0 960L0 2304L384 2304L384 2496L576 2496L576 2304L960 2304L960 2112L192 2112L192 1920L576 1920L576 1728L192 1728L192 1152L960 1152L960 960M768 2496L576 2496L576 2688L768 2688L768 2496Z"  horiz-adv-x="1152" vert-adv-y="1536"  />

      
      <glyph glyph-name="unica" unicode="&#xca;" d="M960 960L0 960L0 2304L192 2304L192 2496L384 2496L384 2304L576 2304L576 2496L768 2496L768 2304L960 2304L960 2112L192 2112L192 1920L576 1920L576 1728L192 1728L192 1152L960 1152L960 960M576 2496L384 2496L384 2688L576 2688L576 2496Z"  horiz-adv-x="1152" vert-adv-y="1536"  />

      
      <glyph glyph-name="unicb" unicode="&#xcb;" d="M960 960L0 960L0 2304L960 2304L960 2112L192 2112L192 1920L576 1920L576 1728L192 1728L192 1152L960 1152L960 960M384 2496L192 2496L192 2688L384 2688L384 2496M768 2496L576 2496L576 2688L768 2688L768 2496Z"  horiz-adv-x="1152" vert-adv-y="1536"  />

      
      <glyph glyph-name="unicc" unicode="&#xcc;" d="M576 960L0 960L0 1152L192 1152L192 2112L0 2112L0 2304L192 2304L192 2496L384 2496L384 2304L576 2304L576 2112L384 2112L384 1152L576 1152L576 960M192 2496L0 2496L0 2688L192 2688L192 2496Z"  horiz-adv-x="768" vert-adv-y="1536"  />

      
      <glyph glyph-name="unicd" unicode="&#xcd;" d="M576 960L0 960L0 1152L192 1152L192 2112L0 2112L0 2304L192 2304L192 2496L384 2496L384 2304L576 2304L576 2112L384 2112L384 1152L576 1152L576 960M576 2496L384 2496L384 2688L576 2688L576 2496Z"  horiz-adv-x="768" vert-adv-y="1536"  />

      
      <glyph glyph-name="unice" unicode="&#xce;" d="M576 960L0 960L0 1152L192 1152L192 2112L0 2112L0 2496L192 2496L192 2304L384 2304L384 2496L576 2496L576 2112L384 2112L384 1152L576 1152L576 960M384 2496L192 2496L192 2688L384 2688L384 2496Z"  horiz-adv-x="768" vert-adv-y="1536"  />

      
      <glyph glyph-name="unicf" unicode="&#xcf;" d="M576 960L0 960L0 1152L192 1152L192 2112L0 2112L0 2304L576 2304L576 2112L384 2112L384 1152L576 1152L576 960M192 2496L0 2496L0 2688L192 2688L192 2496M576 2496L384 2496L384 2688L576 2688L576 2496Z"  horiz-adv-x="768" vert-adv-y="1536"  />

      
      <glyph glyph-name="unid0" unicode="&#xd0;" d="M1152 1152L960 1152L960 2112L1152 2112L1152 1152M960 960L192 960L192 1728L0 1728L0 1920L192 1920L192 2304L960 2304L960 2112L384 2112L384 1920L576 1920L576 1728L384 1728L384 1152L960 1152L960 960Z"  horiz-adv-x="1344" vert-adv-y="1536"  />

      
      <glyph glyph-name="unid1" unicode="&#xd1;" d="M576 1728L384 1728L384 1920L576 1920L576 1728M960 960L768 960L768 1536L576 1536L576 1728L768 1728L768 2304L960 2304L960 960M192 960L0 960L0 2496L192 2496L192 2112L384 2112L384 1920L192 1920L192 960M768 2304L384 2304L384 2496L192 2496L192 2688L576 2688L576 2496L768 2496L768 2304M960 2496L768 2496L768 2688L960 2688L960 2496Z"  horiz-adv-x="1152" vert-adv-y="1536"  />

      
      <glyph glyph-name="unid2" unicode="&#xd2;" d="M768 960L192 960L192 1152L768 1152L768 960M192 1152L0 1152L0 2112L192 2112L192 1152M960 1152L768 1152L768 2112L960 2112L960 1152M768 2112L192 2112L192 2304L384 2304L384 2496L576 2496L576 2304L768 2304L768 2112M384 2496L192 2496L192 2688L384 2688L384 2496Z"  horiz-adv-x="1152" vert-adv-y="1536"  />

      
      <glyph glyph-name="unid3" unicode="&#xd3;" d="M768 960L192 960L192 1152L768 1152L768 960M192 1152L0 1152L0 2112L192 2112L192 1152M960 1152L768 1152L768 2112L960 2112L960 1152M768 2112L192 2112L192 2304L384 2304L384 2496L576 2496L576 2304L768 2304L768 2112M768 2496L576 2496L576 2688L768 2688L768 2496Z"  horiz-adv-x="1152" vert-adv-y="1536"  />

      
      <glyph glyph-name="unid4" unicode="&#xd4;" d="M768 960L192 960L192 1152L768 1152L768 960M192 1152L0 1152L0 2112L192 2112L192 1152M960 1152L768 1152L768 2112L960 2112L960 1152M768 2112L192 2112L192 2496L384 2496L384 2304L576 2304L576 2496L768 2496L768 2112M576 2496L384 2496L384 2688L576 2688L576 2496Z"  horiz-adv-x="1152" vert-adv-y="1536"  />

      
      <glyph glyph-name="unid5" unicode="&#xd5;" d="M768 960L192 960L192 1152L768 1152L768 960M192 1152L0 1152L0 2112L192 2112L192 1152M960 1152L768 1152L768 2112L960 2112L960 1152M192 2304L0 2304L0 2496L192 2496L192 2304M768 2112L192 2112L192 2304L384 2304L384 2496L192 2496L192 2688L576 2688L576 2496L768 2496L768 2112M960 2496L768 2496L768 2688L960 2688L960 2496Z"  horiz-adv-x="1152" vert-adv-y="1536"  />

      
      <glyph glyph-name="unid6" unicode="&#xd6;" d="M768 960L192 960L192 1152L768 1152L768 960M192 1152L0 1152L0 2112L192 2112L192 1152M960 1152L768 1152L768 2112L960 2112L960 1152M768 2112L192 2112L192 2304L768 2304L768 2112M384 2496L192 2496L192 2688L384 2688L384 2496M768 2496L576 2496L576 2688L768 2688L768 2496Z"  horiz-adv-x="1152" vert-adv-y="1536"  />

      
      <glyph glyph-name="unid7" unicode="&#xd7;" d="M192 960L0 960L0 1152L192 1152L192 960M768 960L576 960L576 1152L768 1152L768 960M576 1152L192 1152L192 1536L576 1536L576 1152M192 1536L0 1536L0 1728L192 1728L192 1536M768 1536L576 1536L576 1728L768 1728L768 1536Z"  horiz-adv-x="960" vert-adv-y="1536"  />

      
      <glyph glyph-name="unid8" unicode="&#xd8;" d="M192 960L0 960L0 1152L192 1152L192 960M768 960L384 960L384 1152L768 1152L768 960M576 1536L384 1536L384 1728L576 1728L576 1536M384 1152L192 1152L192 1344L0 1344L0 2112L192 2112L192 1536L384 1536L384 1152M960 1152L768 1152L768 1728L576 1728L576 2112L768 2112L768 1920L960 1920L960 1152M576 2112L192 2112L192 2304L576 2304L576 2112M960 2112L768 2112L768 2304L960 2304L960 2112Z"  horiz-adv-x="1152" vert-adv-y="1536"  />

      
      <glyph glyph-name="unid9" unicode="&#xd9;" d="M768 960L192 960L192 1152L768 1152L768 960M192 1152L0 1152L0 2304L192 2304L192 1152M960 1152L768 1152L768 2304L960 2304L960 1152M576 2304L384 2304L384 2496L576 2496L576 2304M384 2496L192 2496L192 2688L384 2688L384 2496Z"  horiz-adv-x="1152" vert-adv-y="1536"  />

      
      <glyph glyph-name="unida" unicode="&#xda;" d="M768 960L192 960L192 1152L768 1152L768 960M192 1152L0 1152L0 2304L192 2304L192 1152M960 1152L768 1152L768 2304L960 2304L960 1152M576 2304L384 2304L384 2496L576 2496L576 2304M768 2496L576 2496L576 2688L768 2688L768 2496Z"  horiz-adv-x="1152" vert-adv-y="1536"  />

      
      <glyph glyph-name="unidb" unicode="&#xdb;" d="M768 960L192 960L192 1152L768 1152L768 960M192 1152L0 1152L0 2304L192 2304L192 1152M960 1152L768 1152L768 2304L960 2304L960 1152M384 2304L192 2304L192 2496L384 2496L384 2304M768 2304L576 2304L576 2496L768 2496L768 2304M576 2496L384 2496L384 2688L576 2688L576 2496Z"  horiz-adv-x="1152" vert-adv-y="1536"  />

      
      <glyph glyph-name="unidc" unicode="&#xdc;" d="M768 960L192 960L192 1152L768 1152L768 960M192 1152L0 1152L0 2304L192 2304L192 1152M960 1152L768 1152L768 2304L960 2304L960 1152M384 2496L192 2496L192 2688L384 2688L384 2496M768 2496L576 2496L576 2688L768 2688L768 2496Z"  horiz-adv-x="1152" vert-adv-y="1536"  />

      
      <glyph glyph-name="unidd" unicode="&#xdd;" d="M576 960L384 960L384 1920L576 1920L576 960M384 1920L192 1920L192 2112L384 2112L384 1920M768 1920L576 1920L576 2112L768 2112L768 1920M192 2112L0 2112L0 2304L192 2304L192 2112M960 2112L768 2112L768 2304L960 2304L960 2112M576 2304L384 2304L384 2496L576 2496L576 2304M768 2496L576 2496L576 2688L768 2688L768 2496Z"  horiz-adv-x="1152" vert-adv-y="1536"  />

      
      <glyph glyph-name="unide" unicode="&#xde;" d="M960 1728L768 1728L768 1920L960 1920L960 1728M192 960L0 960L0 2304L192 2304L192 2112L768 2112L768 1920L192 1920L192 1728L768 1728L768 1536L192 1536L192 960Z"  horiz-adv-x="1152" vert-adv-y="1536"  />

      
      <glyph glyph-name="unidf" unicode="&#xdf;" d="M768 960L384 960L384 1152L768 1152L768 960M960 1152L768 1152L768 1728L960 1728L960 1152M192 960L0 960L0 2112L192 2112L192 960M768 1728L384 1728L384 1920L576 1920L576 2112L768 2112L768 1728M576 2112L192 2112L192 2304L576 2304L576 2112Z"  horiz-adv-x="1152" vert-adv-y="1536"  />

      
      <glyph glyph-name="unie0" unicode="&#xe0;" d="M192 1152L0 1152L0 1344L192 1344L192 1152M960 960L192 960L192 1152L768 1152L768 1344L192 1344L192 1536L768 1536L768 1728L960 1728L960 960M768 1728L192 1728L192 1920L768 1920L768 1728M576 2112L384 2112L384 2304L576 2304L576 2112M384 2304L192 2304L192 2496L384 2496L384 2304Z"  horiz-adv-x="1152" vert-adv-y="1536"  />

      
      <glyph glyph-name="unie1" unicode="&#xe1;" d="M192 1152L0 1152L0 1344L192 1344L192 1152M960 960L192 960L192 1152L768 1152L768 1344L192 1344L192 1536L768 1536L768 1728L960 1728L960 960M768 1728L192 1728L192 1920L768 1920L768 1728M576 2112L384 2112L384 2304L576 2304L576 2112M768 2304L576 2304L576 2496L768 2496L768 2304Z"  horiz-adv-x="1152" vert-adv-y="1536"  />

      
      <glyph glyph-name="unie2" unicode="&#xe2;" d="M192 1152L0 1152L0 1344L192 1344L192 1152M960 960L192 960L192 1152L768 1152L768 1344L192 1344L192 1536L768 1536L768 1728L960 1728L960 960M768 1728L192 1728L192 1920L768 1920L768 1728M384 2112L192 2112L192 2304L384 2304L384 2112M768 2112L576 2112L576 2304L768 2304L768 2112M576 2304L384 2304L384 2496L576 2496L576 2304Z"  horiz-adv-x="1152" vert-adv-y="1536"  />

      
      <glyph glyph-name="unie3" unicode="&#xe3;" d="M192 1152L0 1152L0 1344L192 1344L192 1152M960 960L192 960L192 1152L768 1152L768 1344L192 1344L192 1536L768 1536L768 1728L960 1728L960 960M768 1728L192 1728L192 1920L768 1920L768 1728M192 2112L0 2112L0 2304L192 2304L192 2112M768 2112L384 2112L384 2304L192 2304L192 2496L576 2496L576 2304L768 2304L768 2112M960 2304L768 2304L768 2496L960 2496L960 2304Z"  horiz-adv-x="1152" vert-adv-y="1536"  />

      
      <glyph glyph-name="unie4" unicode="&#xe4;" d="M192 1152L0 1152L0 1344L192 1344L192 1152M960 960L192 960L192 1152L768 1152L768 1344L192 1344L192 1536L768 1536L768 1728L960 1728L960 960M768 1728L192 1728L192 1920L768 1920L768 1728M384 2112L192 2112L192 2304L384 2304L384 2112M768 2112L576 2112L576 2304L768 2304L768 2112Z"  horiz-adv-x="1152" vert-adv-y="1536"  />

      
      <glyph glyph-name="unie5" unicode="&#xe5;" d="M192 1152L0 1152L0 1344L192 1344L192 1152M960 960L192 960L192 1152L768 1152L768 1344L192 1344L192 1536L768 1536L768 1728L960 1728L960 960M768 1728L192 1728L192 1920L768 1920L768 1728M384 2304L576 2304L576 2496L384 2496L384 2304M768 2112L192 2112L192 2688L768 2688L768 2112Z"  horiz-adv-x="1152" vert-adv-y="1536"  />

      
      <glyph glyph-name="unie6" unicode="&#xe6;" d="M768 960L192 960L192 1152L768 1152L768 960M1536 960L960 960L960 1152L1536 1152L1536 960M192 1152L0 1152L0 1344L192 1344L192 1152M960 1152L768 1152L768 1344L192 1344L192 1536L768 1536L768 1728L960 1728L960 1536L1536 1536L1536 1728L1728 1728L1728 1344L960 1344L960 1152M768 1728L192 1728L192 1920L768 1920L768 1728M1536 1728L960 1728L960 1920L1536 1920L1536 1728Z"  horiz-adv-x="1920" vert-adv-y="1536"  />

      
      <glyph glyph-name="unie7" unicode="&#xe7;" d="M576 576L192 576L192 768L384 768L384 960L192 960L192 1152L768 1152L768 960L576 960L576 576M960 1152L768 1152L768 1344L960 1344L960 1152M192 1152L0 1152L0 1728L192 1728L192 1152M960 1536L768 1536L768 1728L960 1728L960 1536M768 1728L192 1728L192 1920L768 1920L768 1728Z"  horiz-adv-x="1152" vert-adv-y="1536"  />

      
      <glyph glyph-name="unie8" unicode="&#xe8;" d="M960 960L192 960L192 1152L960 1152L960 960M192 1152L0 1152L0 1728L192 1728L192 1536L768 1536L768 1728L960 1728L960 1344L192 1344L192 1152M768 1728L192 1728L192 1920L768 1920L768 1728M576 2112L384 2112L384 2304L576 2304L576 2112M384 2304L192 2304L192 2496L384 2496L384 2304Z"  horiz-adv-x="1152" vert-adv-y="1536"  />

      
      <glyph glyph-name="unie9" unicode="&#xe9;" d="M960 960L192 960L192 1152L960 1152L960 960M192 1152L0 1152L0 1728L192 1728L192 1536L768 1536L768 1728L960 1728L960 1344L192 1344L192 1152M768 1728L192 1728L192 1920L768 1920L768 1728M576 2112L384 2112L384 2304L576 2304L576 2112M768 2304L576 2304L576 2496L768 2496L768 2304Z"  horiz-adv-x="1152" vert-adv-y="1536"  />

      
      <glyph glyph-name="uniea" unicode="&#xea;" d="M960 960L192 960L192 1152L960 1152L960 960M192 1152L0 1152L0 1728L192 1728L192 1536L768 1536L768 1728L960 1728L960 1344L192 1344L192 1152M768 1728L192 1728L192 1920L768 1920L768 1728M384 2112L192 2112L192 2304L384 2304L384 2112M768 2112L576 2112L576 2304L768 2304L768 2112M576 2304L384 2304L384 2496L576 2496L576 2304Z"  horiz-adv-x="1152" vert-adv-y="1536"  />

      
      <glyph glyph-name="unieb" unicode="&#xeb;" d="M960 960L192 960L192 1152L960 1152L960 960M192 1152L0 1152L0 1728L192 1728L192 1536L768 1536L768 1728L960 1728L960 1344L192 1344L192 1152M768 1728L192 1728L192 1920L768 1920L768 1728M384 2112L192 2112L192 2304L384 2304L384 2112M768 2112L576 2112L576 2304L768 2304L768 2112Z"  horiz-adv-x="1152" vert-adv-y="1536"  />

      
      <glyph glyph-name="uniec" unicode="&#xec;" d="M192 960L0 960L0 1920L192 1920L192 960M192 2112L0 2112L0 2304L192 2304L192 2112M0 2304L-192 2304L-192 2496L0 2496L0 2304Z"  horiz-adv-x="384" vert-adv-y="1536"  />

      
      <glyph glyph-name="unied" unicode="&#xed;" d="M192 960L0 960L0 1920L192 1920L192 960M192 2112L0 2112L0 2304L192 2304L192 2112M384 2304L192 2304L192 2496L384 2496L384 2304Z"  horiz-adv-x="576" vert-adv-y="1536"  />

      
      <glyph glyph-name="uniee" unicode="&#xee;" d="M192 960L0 960L0 1920L192 1920L192 960M0 2112L-192 2112L-192 2304L0 2304L0 2112M384 2112L192 2112L192 2304L384 2304L384 2112M192 2304L0 2304L0 2496L192 2496L192 2304Z"  horiz-adv-x="576" vert-adv-y="1536"  />

      
      <glyph glyph-name="unief" unicode="&#xef;" d="M192 960L0 960L0 1920L192 1920L192 960M0 2112L-192 2112L-192 2304L0 2304L0 2112M384 2112L192 2112L192 2304L384 2304L384 2112Z"  horiz-adv-x="576" vert-adv-y="1536"  />

      
      <glyph glyph-name="unif0" unicode="&#xf0;" d="M768 960L192 960L192 1152L768 1152L768 960M192 1152L0 1152L0 1344L192 1344L192 1152M576 1728L384 1728L384 1920L576 1920L576 1728M960 1152L768 1152L768 1344L192 1344L192 1536L768 1536L768 1920L960 1920L960 1152M768 1920L576 1920L576 2112L768 2112L768 1920M576 2112L384 2112L384 2304L576 2304L576 2112M960 2112L768 2112L768 2304L960 2304L960 2112Z"  horiz-adv-x="1152" vert-adv-y="1536"  />

      
      <glyph glyph-name="unif1" unicode="&#xf1;" d="M960 960L768 960L768 1728L960 1728L960 960M192 960L0 960L0 1920L768 1920L768 1728L192 1728L192 960M192 2112L0 2112L0 2304L192 2304L192 2112M768 2112L384 2112L384 2304L192 2304L192 2496L576 2496L576 2304L768 2304L768 2112M960 2304L768 2304L768 2496L960 2496L960 2304Z"  horiz-adv-x="1152" vert-adv-y="1536"  />

      
      <glyph glyph-name="unif2" unicode="&#xf2;" d="M768 960L192 960L192 1152L768 1152L768 960M192 1152L0 1152L0 1728L192 1728L192 1152M960 1152L768 1152L768 1728L960 1728L960 1152M768 1728L192 1728L192 1920L768 1920L768 1728M576 2112L384 2112L384 2304L576 2304L576 2112M384 2304L192 2304L192 2496L384 2496L384 2304Z"  horiz-adv-x="1152" vert-adv-y="1536"  />

      
      <glyph glyph-name="unif3" unicode="&#xf3;" d="M768 960L192 960L192 1152L768 1152L768 960M192 1152L0 1152L0 1728L192 1728L192 1152M960 1152L768 1152L768 1728L960 1728L960 1152M768 1728L192 1728L192 1920L768 1920L768 1728M576 2112L384 2112L384 2304L576 2304L576 2112M768 2304L576 2304L576 2496L768 2496L768 2304Z"  horiz-adv-x="1152" vert-adv-y="1536"  />

      
      <glyph glyph-name="unif4" unicode="&#xf4;" d="M768 960L192 960L192 1152L768 1152L768 960M192 1152L0 1152L0 1728L192 1728L192 1152M960 1152L768 1152L768 1728L960 1728L960 1152M768 1728L192 1728L192 1920L768 1920L768 1728M384 2112L192 2112L192 2304L384 2304L384 2112M768 2112L576 2112L576 2304L768 2304L768 2112M576 2304L384 2304L384 2496L576 2496L576 2304Z"  horiz-adv-x="1152" vert-adv-y="1536"  />

      
      <glyph glyph-name="unif5" unicode="&#xf5;" d="M768 960L192 960L192 1152L768 1152L768 960M192 1152L0 1152L0 1728L192 1728L192 1152M960 1152L768 1152L768 1728L960 1728L960 1152M768 1728L192 1728L192 1920L768 1920L768 1728M192 2112L0 2112L0 2304L192 2304L192 2112M768 2112L384 2112L384 2304L192 2304L192 2496L576 2496L576 2304L768 2304L768 2112M960 2304L768 2304L768 2496L960 2496L960 2304Z"  horiz-adv-x="1152" vert-adv-y="1536"  />

      
      <glyph glyph-name="unif6" unicode="&#xf6;" d="M768 960L192 960L192 1152L768 1152L768 960M192 1152L0 1152L0 1728L192 1728L192 1152M960 1152L768 1152L768 1728L960 1728L960 1152M768 1728L192 1728L192 1920L768 1920L768 1728M384 2112L192 2112L192 2304L384 2304L384 2112M768 2112L576 2112L576 2304L768 2304L768 2112Z"  horiz-adv-x="1152" vert-adv-y="1536"  />

      
      <glyph glyph-name="unif7" unicode="&#xf7;" d="M576 960L384 960L384 1152L576 1152L576 960M960 1344L0 1344L0 1536L960 1536L960 1344M576 1728L384 1728L384 1920L576 1920L576 1728Z"  horiz-adv-x="1152" vert-adv-y="1536"  />

      
      <glyph glyph-name="unif8" unicode="&#xf8;" d="M192 960L0 960L0 1152L192 1152L192 960M768 960L384 960L384 1152L768 1152L768 960M384 1152L192 1152L192 1344L384 1344L384 1152M576 1344L384 1344L384 1536L576 1536L576 1344M960 1152L768 1152L768 1536L960 1536L960 1152M192 1344L0 1344L0 1728L192 1728L192 1344M768 1536L576 1536L576 1728L768 1728L768 1536M576 1728L192 1728L192 1920L576 1920L576 1728M960 1728L768 1728L768 1920L960 1920L960 1728Z"  horiz-adv-x="1152" vert-adv-y="1536"  />

      
      <glyph glyph-name="unif9" unicode="&#xf9;" d="M192 1152L0 1152L0 1920L192 1920L192 1152M960 960L192 960L192 1152L768 1152L768 1920L960 1920L960 960M576 2112L384 2112L384 2304L576 2304L576 2112M384 2304L192 2304L192 2496L384 2496L384 2304Z"  horiz-adv-x="1152" vert-adv-y="1536"  />

      
      <glyph glyph-name="unifa" unicode="&#xfa;" d="M192 1152L0 1152L0 1920L192 1920L192 1152M960 960L192 960L192 1152L768 1152L768 1920L960 1920L960 960M576 2112L384 2112L384 2304L576 2304L576 2112M768 2304L576 2304L576 2496L768 2496L768 2304Z"  horiz-adv-x="1152" vert-adv-y="1536"  />

      
      <glyph glyph-name="unifb" unicode="&#xfb;" d="M192 1152L0 1152L0 1920L192 1920L192 1152M960 960L192 960L192 1152L768 1152L768 1920L960 1920L960 960M384 2112L192 2112L192 2304L384 2304L384 2112M768 2112L576 2112L576 2304L768 2304L768 2112M576 2304L384 2304L384 2496L576 2496L576 2304Z"  horiz-adv-x="1152" vert-adv-y="1536"  />

      
      <glyph glyph-name="unifc" unicode="&#xfc;" d="M192 1152L0 1152L0 1920L192 1920L192 1152M960 960L192 960L192 1152L768 1152L768 1920L960 1920L960 960M384 2112L192 2112L192 2304L384 2304L384 2112M768 2112L576 2112L576 2304L768 2304L768 2112Z"  horiz-adv-x="1152" vert-adv-y="1536"  />

      
      <glyph glyph-name="unifd" unicode="&#xfd;" d="M768 768L0 768L0 960L768 960L768 768M192 1344L0 1344L0 1920L192 1920L192 1344M960 960L768 960L768 1152L192 1152L192 1344L768 1344L768 1920L960 1920L960 960M576 2112L384 2112L384 2304L576 2304L576 2112M768 2304L576 2304L576 2496L768 2496L768 2304Z"  horiz-adv-x="1152" vert-adv-y="1536"  />

      
      <glyph glyph-name="unife" unicode="&#xfe;" d="M960 1344L768 1344L768 1728L960 1728L960 1344M768 1728L384 1728L384 1920L768 1920L768 1728M192 768L0 768L0 2304L192 2304L192 1728L384 1728L384 1536L192 1536L192 1344L768 1344L768 1152L192 1152L192 768Z"  horiz-adv-x="1152" vert-adv-y="1536"  />

      
      <glyph glyph-name="uniff" unicode="&#xff;" d="M768 768L0 768L0 960L768 960L768 768M192 1344L0 1344L0 1920L192 1920L192 1344M960 960L768 960L768 1152L192 1152L192 1344L768 1344L768 1920L960 1920L960 960Z"  horiz-adv-x="1152" vert-adv-y="1536"  />

      
      <glyph glyph-name="uni0100" unicode="&#x0100;" d="M192 960L0 960L0 2112L192 2112L192 1920L768 1920L768 2112L960 2112L960 960L768 960L768 1728L192 1728L192 960M768 2112L192 2112L192 2304L768 2304L768 2112M768 2496L192 2496L192 2688L768 2688L768 2496Z"  horiz-adv-x="1152" vert-adv-y="1536"  />

      
      <glyph glyph-name="uni0101" unicode="&#x0101;" d="M192 1152L0 1152L0 1344L192 1344L192 1152M960 960L192 960L192 1152L768 1152L768 1344L192 1344L192 1536L768 1536L768 1728L960 1728L960 960M768 1728L192 1728L192 1920L768 1920L768 1728M768 2112L192 2112L192 2304L768 2304L768 2112Z"  horiz-adv-x="1152" vert-adv-y="1536"  />

      
      <glyph glyph-name="uni0102" unicode="&#x0102;" d="M192 960L0 960L0 2112L192 2112L192 1920L768 1920L768 2112L960 2112L960 960L768 960L768 1728L192 1728L192 960M768 2112L192 2112L192 2688L384 2688L384 2496L576 2496L576 2688L768 2688L768 2112Z"  horiz-adv-x="1152" vert-adv-y="1536"  />

      
      <glyph glyph-name="uni0103" unicode="&#x0103;" d="M192 1152L0 1152L0 1344L192 1344L192 1152M960 960L192 960L192 1152L768 1152L768 1344L192 1344L192 1536L768 1536L768 1728L960 1728L960 960M768 1728L192 1728L192 1920L768 1920L768 1728M768 2112L192 2112L192 2496L384 2496L384 2304L576 2304L576 2496L768 2496L768 2112Z"  horiz-adv-x="1152" vert-adv-y="1536"  />

      
      <glyph glyph-name="uni0104" unicode="&#x0104;" d="M960 576L576 576L576 960L768 960L768 768L960 768L960 576M192 960L0 960L0 2112L192 2112L192 1920L768 1920L768 2112L960 2112L960 960L768 960L768 1728L192 1728L192 960M768 2112L192 2112L192 2304L768 2304L768 2112Z"  horiz-adv-x="1152" vert-adv-y="1536"  />

      
      <glyph glyph-name="uni0105" unicode="&#x0105;" d="M192 1152L0 1152L0 1344L192 1344L192 1152M960 576L576 576L576 960L192 960L192 1152L768 1152L768 1344L192 1344L192 1536L768 1536L768 1728L960 1728L960 960L768 960L768 768L960 768L960 576M768 1728L192 1728L192 1920L768 1920L768 1728Z"  horiz-adv-x="1152" vert-adv-y="1536"  />

      
      <glyph glyph-name="uni0106" unicode="&#x0106;" d="M768 960L192 960L192 1152L768 1152L768 960M960 1152L768 1152L768 1344L960 1344L960 1152M192 1152L0 1152L0 2112L192 2112L192 1152M960 1920L768 1920L768 2112L960 2112L960 1920M768 2112L192 2112L192 2304L384 2304L384 2496L576 2496L576 2304L768 2304L768 2112M768 2496L576 2496L576 2688L768 2688L768 2496Z"  horiz-adv-x="1152" vert-adv-y="1536"  />

      
      <glyph glyph-name="uni0107" unicode="&#x0107;" d="M768 960L192 960L192 1152L768 1152L768 960M960 1152L768 1152L768 1344L960 1344L960 1152M192 1152L0 1152L0 1728L192 1728L192 1152M960 1536L768 1536L768 1728L960 1728L960 1536M768 1728L192 1728L192 1920L768 1920L768 1728M576 2112L384 2112L384 2304L576 2304L576 2112M768 2304L576 2304L576 2496L768 2496L768 2304Z"  horiz-adv-x="1152" vert-adv-y="1536"  />

      
      <glyph glyph-name="uni0108" unicode="&#x0108;" d="M768 960L192 960L192 1152L768 1152L768 960M960 1152L768 1152L768 1344L960 1344L960 1152M192 1152L0 1152L0 2112L192 2112L192 1152M960 1920L768 1920L768 2112L960 2112L960 1920M768 2112L192 2112L192 2496L384 2496L384 2304L576 2304L576 2496L768 2496L768 2112M576 2496L384 2496L384 2688L576 2688L576 2496Z"  horiz-adv-x="1152" vert-adv-y="1536"  />

      
      <glyph glyph-name="uni0109" unicode="&#x0109;" d="M768 960L192 960L192 1152L768 1152L768 960M960 1152L768 1152L768 1344L960 1344L960 1152M192 1152L0 1152L0 1728L192 1728L192 1152M960 1536L768 1536L768 1728L960 1728L960 1536M768 1728L192 1728L192 1920L768 1920L768 1728M384 2112L192 2112L192 2304L384 2304L384 2112M768 2112L576 2112L576 2304L768 2304L768 2112M576 2304L384 2304L384 2496L576 2496L576 2304Z"  horiz-adv-x="1152" vert-adv-y="1536"  />

      
      <glyph glyph-name="uni010A" unicode="&#x010A;" d="M768 960L192 960L192 1152L768 1152L768 960M960 1152L768 1152L768 1344L960 1344L960 1152M192 1152L0 1152L0 2112L192 2112L192 1152M960 1920L768 1920L768 2112L960 2112L960 1920M768 2112L192 2112L192 2304L768 2304L768 2112M576 2496L384 2496L384 2688L576 2688L576 2496Z"  horiz-adv-x="1152" vert-adv-y="1536"  />

      
      <glyph glyph-name="uni010B" unicode="&#x010B;" d="M768 960L192 960L192 1152L768 1152L768 960M960 1152L768 1152L768 1344L960 1344L960 1152M192 1152L0 1152L0 1728L192 1728L192 1152M960 1536L768 1536L768 1728L960 1728L960 1536M768 1728L192 1728L192 1920L768 1920L768 1728M576 2112L384 2112L384 2304L576 2304L576 2112Z"  horiz-adv-x="1152" vert-adv-y="1536"  />

      
      <glyph glyph-name="uni010C" unicode="&#x010C;" d="M768 960L192 960L192 1152L768 1152L768 960M960 1152L768 1152L768 1344L960 1344L960 1152M192 1152L0 1152L0 2112L192 2112L192 1152M960 1920L768 1920L768 2112L960 2112L960 1920M768 2112L192 2112L192 2304L384 2304L384 2496L576 2496L576 2304L768 2304L768 2112M384 2496L192 2496L192 2688L384 2688L384 2496M768 2496L576 2496L576 2688L768 2688L768 2496Z"  horiz-adv-x="1152" vert-adv-y="1536"  />

      
      <glyph glyph-name="uni010D" unicode="&#x010D;" d="M768 960L192 960L192 1152L768 1152L768 960M960 1152L768 1152L768 1344L960 1344L960 1152M192 1152L0 1152L0 1728L192 1728L192 1152M960 1536L768 1536L768 1728L960 1728L960 1536M768 1728L192 1728L192 1920L768 1920L768 1728M576 2112L384 2112L384 2304L576 2304L576 2112M384 2304L192 2304L192 2496L384 2496L384 2304M768 2304L576 2304L576 2496L768 2496L768 2304Z"  horiz-adv-x="1152" vert-adv-y="1536"  />

      
      <glyph glyph-name="uni010E" unicode="&#x010E;" d="M960 1152L768 1152L768 2112L960 2112L960 1152M768 960L0 960L0 2304L384 2304L384 2496L576 2496L576 2304L768 2304L768 2112L192 2112L192 1152L768 1152L768 960M384 2496L192 2496L192 2688L384 2688L384 2496M768 2496L576 2496L576 2688L768 2688L768 2496Z"  horiz-adv-x="1152" vert-adv-y="1536"  />

      
      <glyph glyph-name="uni010F" unicode="&#x010F;" d="M192 1152L0 1152L0 1728L192 1728L192 1152M576 1728L192 1728L192 1920L576 1920L576 1728M960 960L192 960L192 1152L768 1152L768 1536L576 1536L576 1728L768 1728L768 2304L960 2304L960 960M1344 2112L1152 2112L1152 2496L1344 2496L1344 2112Z"  horiz-adv-x="1536" vert-adv-y="1536"  />

      
      <glyph glyph-name="uni0110" unicode="&#x0110;" d="M1152 1152L960 1152L960 2112L1152 2112L1152 1152M960 960L192 960L192 1728L0 1728L0 1920L192 1920L192 2304L960 2304L960 2112L384 2112L384 1920L576 1920L576 1728L384 1728L384 1152L960 1152L960 960Z"  horiz-adv-x="1344" vert-adv-y="1536"  />

      
      <glyph glyph-name="uni0111" unicode="&#x0111;" d="M192 1152L0 1152L0 1728L192 1728L192 1152M576 1728L192 1728L192 1920L576 1920L576 1728M960 960L192 960L192 1152L768 1152L768 1536L576 1536L576 1728L768 1728L768 1920L576 1920L576 2112L768 2112L768 2304L960 2304L960 2112L1152 2112L1152 1920L960 1920L960 960Z"  horiz-adv-x="1344" vert-adv-y="1536"  />

      
      <glyph glyph-name="uni0112" unicode="&#x0112;" d="M960 960L0 960L0 2304L960 2304L960 2112L192 2112L192 1920L576 1920L576 1728L192 1728L192 1152L960 1152L960 960M768 2496L192 2496L192 2688L768 2688L768 2496Z"  horiz-adv-x="1152" vert-adv-y="1536"  />

      
      <glyph glyph-name="uni0113" unicode="&#x0113;" d="M960 960L192 960L192 1152L960 1152L960 960M192 1152L0 1152L0 1728L192 1728L192 1536L768 1536L768 1728L960 1728L960 1344L192 1344L192 1152M768 1728L192 1728L192 1920L768 1920L768 1728M768 2112L192 2112L192 2304L768 2304L768 2112Z"  horiz-adv-x="1152" vert-adv-y="1536"  />

      
      <glyph glyph-name="uni0114" unicode="&#x0114;" d="M960 960L0 960L0 2304L192 2304L192 2688L384 2688L384 2496L576 2496L576 2688L768 2688L768 2304L960 2304L960 2112L192 2112L192 1920L576 1920L576 1728L192 1728L192 1152L960 1152L960 960Z"  horiz-adv-x="1152" vert-adv-y="1536"  />

      
      <glyph glyph-name="uni0115" unicode="&#x0115;" d="M960 960L192 960L192 1152L960 1152L960 960M192 1152L0 1152L0 1728L192 1728L192 1536L768 1536L768 1728L960 1728L960 1344L192 1344L192 1152M768 1728L192 1728L192 1920L768 1920L768 1728M768 2112L192 2112L192 2496L384 2496L384 2304L576 2304L576 2496L768 2496L768 2112Z"  horiz-adv-x="1152" vert-adv-y="1536"  />

      
      <glyph glyph-name="uni0116" unicode="&#x0116;" d="M960 960L0 960L0 2304L960 2304L960 2112L192 2112L192 1920L576 1920L576 1728L192 1728L192 1152L960 1152L960 960M576 2496L384 2496L384 2688L576 2688L576 2496Z"  horiz-adv-x="1152" vert-adv-y="1536"  />

      
      <glyph glyph-name="uni0117" unicode="&#x0117;" d="M960 960L192 960L192 1152L960 1152L960 960M192 1152L0 1152L0 1728L192 1728L192 1536L768 1536L768 1728L960 1728L960 1344L192 1344L192 1152M768 1728L192 1728L192 1920L768 1920L768 1728M576 2112L384 2112L384 2304L576 2304L576 2112Z"  horiz-adv-x="1152" vert-adv-y="1536"  />

      
      <glyph glyph-name="uni0118" unicode="&#x0118;" d="M960 576L576 576L576 960L0 960L0 2304L960 2304L960 2112L192 2112L192 1920L576 1920L576 1728L192 1728L192 1152L960 1152L960 960L768 960L768 768L960 768L960 576Z"  horiz-adv-x="1152" vert-adv-y="1536"  />

      
      <glyph glyph-name="uni0119" unicode="&#x0119;" d="M960 576L576 576L576 960L192 960L192 1152L960 1152L960 960L768 960L768 768L960 768L960 576M192 1152L0 1152L0 1728L192 1728L192 1536L768 1536L768 1728L960 1728L960 1344L192 1344L192 1152M768 1728L192 1728L192 1920L768 1920L768 1728Z"  horiz-adv-x="1152" vert-adv-y="1536"  />

      
      <glyph glyph-name="uni011A" unicode="&#x011A;" d="M960 960L0 960L0 2304L384 2304L384 2496L576 2496L576 2304L960 2304L960 2112L192 2112L192 1920L576 1920L576 1728L192 1728L192 1152L960 1152L960 960M384 2496L192 2496L192 2688L384 2688L384 2496M768 2496L576 2496L576 2688L768 2688L768 2496Z"  horiz-adv-x="1152" vert-adv-y="1536"  />

      
      <glyph glyph-name="uni011B" unicode="&#x011B;" d="M960 960L192 960L192 1152L960 1152L960 960M192 1152L0 1152L0 1728L192 1728L192 1536L768 1536L768 1728L960 1728L960 1344L192 1344L192 1152M768 1728L192 1728L192 1920L768 1920L768 1728M576 2112L384 2112L384 2304L576 2304L576 2112M384 2304L192 2304L192 2496L384 2496L384 2304M768 2304L576 2304L576 2496L768 2496L768 2304Z"  horiz-adv-x="1152" vert-adv-y="1536"  />

      
      <glyph glyph-name="uni011C" unicode="&#x011C;" d="M768 960L192 960L192 1152L768 1152L768 960M960 1152L768 1152L768 1728L576 1728L576 1920L960 1920L960 1152M192 1152L0 1152L0 2112L192 2112L192 1152M960 2112L192 2112L192 2496L384 2496L384 2304L576 2304L576 2496L768 2496L768 2304L960 2304L960 2112M576 2496L384 2496L384 2688L576 2688L576 2496Z"  horiz-adv-x="1152" vert-adv-y="1536"  />

      
      <glyph glyph-name="uni011D" unicode="&#x011D;" d="M768 768L0 768L0 960L768 960L768 768M192 1344L0 1344L0 1728L192 1728L192 1344M960 960L768 960L768 1152L192 1152L192 1344L768 1344L768 1728L192 1728L192 1920L960 1920L960 960M384 2112L192 2112L192 2304L384 2304L384 2112M768 2112L576 2112L576 2304L768 2304L768 2112M576 2304L384 2304L384 2496L576 2496L576 2304Z"  horiz-adv-x="1152" vert-adv-y="1536"  />

      
      <glyph glyph-name="uni011E" unicode="&#x011E;" d="M768 960L192 960L192 1152L768 1152L768 960M960 1152L768 1152L768 1728L576 1728L576 1920L960 1920L960 1152M192 1152L0 1152L0 2112L192 2112L192 1152M960 2112L192 2112L192 2688L384 2688L384 2496L576 2496L576 2688L768 2688L768 2304L960 2304L960 2112Z"  horiz-adv-x="1152" vert-adv-y="1536"  />

      
      <glyph glyph-name="uni011F" unicode="&#x011F;" d="M768 768L0 768L0 960L768 960L768 768M192 1344L0 1344L0 1728L192 1728L192 1344M960 960L768 960L768 1152L192 1152L192 1344L768 1344L768 1728L192 1728L192 1920L960 1920L960 960M768 2112L192 2112L192 2496L384 2496L384 2304L576 2304L576 2496L768 2496L768 2112Z"  horiz-adv-x="1152" vert-adv-y="1536"  />

      
      <glyph glyph-name="uni0120" unicode="&#x0120;" d="M768 960L192 960L192 1152L768 1152L768 960M960 1152L768 1152L768 1728L576 1728L576 1920L960 1920L960 1152M192 1152L0 1152L0 2112L192 2112L192 1152M960 2112L192 2112L192 2304L960 2304L960 2112M576 2496L384 2496L384 2688L576 2688L576 2496Z"  horiz-adv-x="1152" vert-adv-y="1536"  />

      
      <glyph glyph-name="uni0121" unicode="&#x0121;" d="M768 768L0 768L0 960L768 960L768 768M192 1344L0 1344L0 1728L192 1728L192 1344M960 960L768 960L768 1152L192 1152L192 1344L768 1344L768 1728L192 1728L192 1920L960 1920L960 960M576 2112L384 2112L384 2304L576 2304L576 2112Z"  horiz-adv-x="1152" vert-adv-y="1536"  />

      
      <glyph glyph-name="uni0122" unicode="&#x0122;" d="M576 576L384 576L384 960L192 960L192 1152L768 1152L768 960L576 960L576 576M960 1152L768 1152L768 1728L576 1728L576 1920L960 1920L960 1152M192 1152L0 1152L0 2112L192 2112L192 1152M960 2112L192 2112L192 2304L960 2304L960 2112Z"  horiz-adv-x="1152" vert-adv-y="1536"  />

      
      <glyph glyph-name="uni0123" unicode="&#x0123;" d="M768 768L0 768L0 960L768 960L768 768M192 1344L0 1344L0 1728L192 1728L192 1344M960 960L768 960L768 1152L192 1152L192 1344L768 1344L768 1728L192 1728L192 1920L960 1920L960 960M576 2112L384 2112L384 2496L576 2496L576 2112Z"  horiz-adv-x="1152" vert-adv-y="1536"  />

      
      <glyph glyph-name="uni0124" unicode="&#x0124;" d="M192 960L0 960L0 2304L192 2304L192 1920L768 1920L768 2304L960 2304L960 960L768 960L768 1728L192 1728L192 960M384 2304L192 2304L192 2496L384 2496L384 2304M768 2304L576 2304L576 2496L768 2496L768 2304M576 2496L384 2496L384 2688L576 2688L576 2496Z"  horiz-adv-x="1152" vert-adv-y="1536"  />

      
      <glyph glyph-name="uni0125" unicode="&#x0125;" d="M960 960L768 960L768 1728L960 1728L960 960M768 1728L384 1728L384 1920L768 1920L768 1728M192 960L0 960L0 2304L192 2304L192 1728L384 1728L384 1536L192 1536L192 960M384 2304L192 2304L192 2496L384 2496L384 2304M768 2304L576 2304L576 2496L768 2496L768 2304M576 2496L384 2496L384 2688L576 2688L576 2496Z"  horiz-adv-x="1152" vert-adv-y="1536"  />

      
      <glyph glyph-name="uni0126" unicode="&#x0126;" d="M192 1920L768 1920L768 2112L192 2112L192 1920M192 960L0 960L0 2304L960 2304L960 960L768 960L768 1728L192 1728L192 960Z"  horiz-adv-x="1152" vert-adv-y="1536"  />

      
      <glyph glyph-name="uni0127" unicode="&#x0127;" d="M1152 960L960 960L960 1728L1152 1728L1152 960M960 1728L576 1728L576 1920L960 1920L960 1728M384 960L192 960L192 1920L0 1920L0 2112L192 2112L192 2304L384 2304L384 2112L576 2112L576 1920L384 1920L384 1728L576 1728L576 1536L384 1536L384 960Z"  horiz-adv-x="1344" vert-adv-y="1536"  />

      
      <glyph glyph-name="uni0128" unicode="&#x0128;" d="M0 2304L-192 2304L-192 2496L0 2496L0 2304M576 960L0 960L0 1152L192 1152L192 2112L0 2112L0 2304L192 2304L192 2496L0 2496L0 2688L384 2688L384 2496L576 2496L576 2112L384 2112L384 1152L576 1152L576 960M768 2496L576 2496L576 2688L768 2688L768 2496Z"  horiz-adv-x="960" vert-adv-y="1536"  />

      
      <glyph glyph-name="uni0129" unicode="&#x0129;" d="M384 960L192 960L192 1920L384 1920L384 960M0 2112L-192 2112L-192 2304L0 2304L0 2112M576 2112L192 2112L192 2304L0 2304L0 2496L384 2496L384 2304L576 2304L576 2112M768 2304L576 2304L576 2496L768 2496L768 2304Z"  horiz-adv-x="960" vert-adv-y="1536"  />

      
      <glyph glyph-name="uni012A" unicode="&#x012A;" d="M576 960L0 960L0 1152L192 1152L192 2112L0 2112L0 2304L576 2304L576 2112L384 2112L384 1152L576 1152L576 960M576 2496L0 2496L0 2688L576 2688L576 2496Z"  horiz-adv-x="768" vert-adv-y="1536"  />

      
      <glyph glyph-name="uni012B" unicode="&#x012B;" d="M192 960L0 960L0 1920L192 1920L192 960M384 2112L-192 2112L-192 2304L384 2304L384 2112Z"  horiz-adv-x="576" vert-adv-y="1536"  />

      
      <glyph glyph-name="uni012C" unicode="&#x012C;" d="M576 960L0 960L0 1152L192 1152L192 2112L0 2112L0 2688L192 2688L192 2496L384 2496L384 2688L576 2688L576 2112L384 2112L384 1152L576 1152L576 960Z"  horiz-adv-x="768" vert-adv-y="1536"  />

      
      <glyph glyph-name="uni012D" unicode="&#x012D;" d="M192 960L0 960L0 1920L192 1920L192 960M384 2112L-192 2112L-192 2496L0 2496L0 2304L192 2304L192 2496L384 2496L384 2112Z"  horiz-adv-x="576" vert-adv-y="1536"  />

      
      <glyph glyph-name="uni012E" unicode="&#x012E;" d="M576 576L192 576L192 960L0 960L0 1152L192 1152L192 2112L0 2112L0 2304L576 2304L576 2112L384 2112L384 1152L576 1152L576 960L384 960L384 768L576 768L576 576Z"  horiz-adv-x="768" vert-adv-y="1536"  />

      
      <glyph glyph-name="uni012F" unicode="&#x012F;" d="M384 576L0 576L0 1920L192 1920L192 768L384 768L384 576M192 2112L0 2112L0 2304L192 2304L192 2112Z"  horiz-adv-x="576" vert-adv-y="1536"  />

      
      <glyph glyph-name="uni0130" unicode="&#x0130;" d="M576 960L0 960L0 1152L192 1152L192 2112L0 2112L0 2304L576 2304L576 2112L384 2112L384 1152L576 1152L576 960M384 2496L192 2496L192 2688L384 2688L384 2496Z"  horiz-adv-x="768" vert-adv-y="1536"  />

      
      <glyph glyph-name="uni0131" unicode="&#x0131;" d="M192 960L0 960L0 1920L192 1920L192 960Z"  horiz-adv-x="384" vert-adv-y="1536"  />

      
      <glyph glyph-name="uni0132" unicode="&#x0132;" d="M1536 960L960 960L960 1152L1536 1152L1536 960M960 1152L768 1152L768 1344L960 1344L960 1152M576 960L0 960L0 1152L192 1152L192 2112L0 2112L0 2304L576 2304L576 2112L384 2112L384 1152L576 1152L576 960M1728 1152L1536 1152L1536 2304L1728 2304L1728 1152Z"  horiz-adv-x="1920" vert-adv-y="1536"  />

      
      <glyph glyph-name="uni0133" unicode="&#x0133;" d="M1152 576L576 576L576 768L1152 768L1152 576M576 768L384 768L384 960L576 960L576 768M192 960L0 960L0 1920L192 1920L192 960M1344 768L1152 768L1152 1920L1344 1920L1344 768M192 2112L0 2112L0 2304L192 2304L192 2112M1344 2112L1152 2112L1152 2304L1344 2304L1344 2112Z"  horiz-adv-x="1536" vert-adv-y="1536"  />

      
      <glyph glyph-name="uni0134" unicode="&#x0134;" d="M768 960L192 960L192 1152L768 1152L768 960M192 1152L0 1152L0 1344L192 1344L192 1152M960 1152L768 1152L768 2304L960 2304L960 1152M384 2304L192 2304L192 2496L384 2496L384 2304M768 2304L576 2304L576 2496L768 2496L768 2304M576 2496L384 2496L384 2688L576 2688L576 2496Z"  horiz-adv-x="1152" vert-adv-y="1536"  />

      
      <glyph glyph-name="uni0135" unicode="&#x0135;" d="M768 768L192 768L192 960L768 960L768 768M192 960L0 960L0 1152L192 1152L192 960M960 960L768 960L768 1920L960 1920L960 960M768 2112L576 2112L576 2304L768 2304L768 2112M1152 2112L960 2112L960 2304L1152 2304L1152 2112M960 2304L768 2304L768 2496L960 2496L960 2304Z"  horiz-adv-x="1344" vert-adv-y="1536"  />

      
      <glyph glyph-name="uni0136" unicode="&#x0136;" d="M576 576L384 576L384 960L576 960L576 576M960 960L768 960L768 1536L960 1536L960 960M768 1536L576 1536L576 1728L768 1728L768 1536M768 1920L576 1920L576 2112L768 2112L768 1920M192 960L0 960L0 2304L192 2304L192 1920L576 1920L576 1728L192 1728L192 960M960 2112L768 2112L768 2304L960 2304L960 2112Z"  horiz-adv-x="1152" vert-adv-y="1536"  />

      
      <glyph glyph-name="uni0137" unicode="&#x0137;" d="M576 576L384 576L384 960L576 960L576 576M768 960L576 960L576 1152L768 1152L768 960M576 1152L384 1152L384 1344L576 1344L576 1152M576 1536L384 1536L384 1728L576 1728L576 1536M768 1728L576 1728L576 1920L768 1920L768 1728M192 960L0 960L0 2304L192 2304L192 1536L384 1536L384 1344L192 1344L192 960Z"  horiz-adv-x="960" vert-adv-y="1536"  />

      
      <glyph glyph-name="uni0138" unicode="&#x0138;" d="M768 960L576 960L576 1152L768 1152L768 960M576 1152L384 1152L384 1344L576 1344L576 1152M576 1536L384 1536L384 1728L576 1728L576 1536M192 960L0 960L0 1920L192 1920L192 1536L384 1536L384 1344L192 1344L192 960M768 1728L576 1728L576 1920L768 1920L768 1728Z"  horiz-adv-x="960" vert-adv-y="1536"  />

      
      <glyph glyph-name="uni0139" unicode="&#x0139;" d="M960 960L0 960L0 2304L192 2304L192 1152L960 1152L960 960M576 2304L384 2304L384 2496L576 2496L576 2304M768 2496L576 2496L576 2688L768 2688L768 2496Z"  horiz-adv-x="1152" vert-adv-y="1536"  />

      
      <glyph glyph-name="uni013A" unicode="&#x013A;" d="M384 960L192 960L192 1152L384 1152L384 960M192 1152L0 1152L0 2496L192 2496L192 1152M384 2496L192 2496L192 2688L384 2688L384 2496Z"  horiz-adv-x="576" vert-adv-y="1536"  />

      
      <glyph glyph-name="uni013B" unicode="&#x013B;" d="M576 576L384 576L384 960L0 960L0 2304L192 2304L192 1152L960 1152L960 960L576 960L576 576Z"  horiz-adv-x="1152" vert-adv-y="1536"  />

      
      <glyph glyph-name="uni013C" unicode="&#x013C;" d="M192 576L0 576L0 960L192 960L192 576M384 960L192 960L192 1152L384 1152L384 960M192 1152L0 1152L0 2304L192 2304L192 1152Z"  horiz-adv-x="576" vert-adv-y="1536"  />

      
      <glyph glyph-name="uni013D" unicode="&#x013D;" d="M960 960L0 960L0 2304L192 2304L192 1152L960 1152L960 960M576 2112L384 2112L384 2496L576 2496L576 2112Z"  horiz-adv-x="1152" vert-adv-y="1536"  />

      
      <glyph glyph-name="uni013E" unicode="&#x013E;" d="M384 960L192 960L192 1152L384 1152L384 960M192 1152L0 1152L0 2304L192 2304L192 1152M576 2112L384 2112L384 2496L576 2496L576 2112Z"  horiz-adv-x="768" vert-adv-y="1536"  />

      
      <glyph glyph-name="uni013F" unicode="&#x013F;" d="M576 1536L384 1536L384 1728L576 1728L576 1536M960 960L0 960L0 2304L192 2304L192 1152L960 1152L960 960Z"  horiz-adv-x="1152" vert-adv-y="1536"  />

      
      <glyph glyph-name="uni0140" unicode="&#x0140;" d="M384 960L192 960L192 1152L384 1152L384 960M576 1536L384 1536L384 1728L576 1728L576 1536M192 1152L0 1152L0 2304L192 2304L192 1152Z"  horiz-adv-x="768" vert-adv-y="1536"  />

      
      <glyph glyph-name="uni0141" unicode="&#x0141;" d="M768 1728L576 1728L576 1920L768 1920L768 1728M1152 960L192 960L192 1344L0 1344L0 1536L192 1536L192 2304L384 2304L384 1728L576 1728L576 1536L384 1536L384 1152L1152 1152L1152 960Z"  horiz-adv-x="1344" vert-adv-y="1536"  />

      
      <glyph glyph-name="uni0142" unicode="&#x0142;" d="M576 960L384 960L384 1152L576 1152L576 960M384 1152L192 1152L192 1344L0 1344L0 1536L192 1536L192 2304L384 2304L384 1920L576 1920L576 1728L384 1728L384 1152Z"  horiz-adv-x="768" vert-adv-y="1536"  />

      
      <glyph glyph-name="uni0143" unicode="&#x0143;" d="M576 1728L384 1728L384 1920L576 1920L576 1728M192 960L0 960L0 2304L192 2304L192 2112L384 2112L384 1920L192 1920L192 960M960 960L768 960L768 1536L576 1536L576 1728L768 1728L768 2304L960 2304L960 960M576 2304L384 2304L384 2496L576 2496L576 2304M768 2496L576 2496L576 2688L768 2688L768 2496Z"  horiz-adv-x="1152" vert-adv-y="1536"  />

      
      <glyph glyph-name="uni0144" unicode="&#x0144;" d="M960 960L768 960L768 1728L960 1728L960 960M192 960L0 960L0 1920L768 1920L768 1728L192 1728L192 960M576 2112L384 2112L384 2304L576 2304L576 2112M768 2304L576 2304L576 2496L768 2496L768 2304Z"  horiz-adv-x="1152" vert-adv-y="1536"  />

      
      <glyph glyph-name="uni0145" unicode="&#x0145;" d="M576 576L384 576L384 960L576 960L576 576M576 1728L384 1728L384 1920L576 1920L576 1728M192 960L0 960L0 2304L192 2304L192 2112L384 2112L384 1920L192 1920L192 960M960 960L768 960L768 1536L576 1536L576 1728L768 1728L768 2304L960 2304L960 960Z"  horiz-adv-x="1152" vert-adv-y="1536"  />

      
      <glyph glyph-name="uni0146" unicode="&#x0146;" d="M576 576L384 576L384 960L576 960L576 576M960 960L768 960L768 1728L960 1728L960 960M192 960L0 960L0 1920L768 1920L768 1728L192 1728L192 960Z"  horiz-adv-x="1152" vert-adv-y="1536"  />

      
      <glyph glyph-name="uni0147" unicode="&#x0147;" d="M576 1728L384 1728L384 1920L576 1920L576 1728M192 960L0 960L0 2304L192 2304L192 2112L384 2112L384 1920L192 1920L192 960M960 960L768 960L768 1536L576 1536L576 1728L768 1728L768 2304L960 2304L960 960M576 2304L384 2304L384 2496L576 2496L576 2304M384 2496L192 2496L192 2688L384 2688L384 2496M768 2496L576 2496L576 2688L768 2688L768 2496Z"  horiz-adv-x="1152" vert-adv-y="1536"  />

      
      <glyph glyph-name="uni0148" unicode="&#x0148;" d="M960 960L768 960L768 1728L960 1728L960 960M192 960L0 960L0 1920L768 1920L768 1728L192 1728L192 960M576 2112L384 2112L384 2304L576 2304L576 2112M384 2304L192 2304L192 2496L384 2496L384 2304M768 2304L576 2304L576 2496L768 2496L768 2304Z"  horiz-adv-x="1152" vert-adv-y="1536"  />

      
      <glyph glyph-name="uni0149" unicode="&#x0149;" d="M1344 960L1152 960L1152 1728L1344 1728L1344 960M576 960L384 960L384 1920L1152 1920L1152 1728L576 1728L576 960M192 1920L0 1920L0 2304L192 2304L192 1920Z"  horiz-adv-x="1536" vert-adv-y="1536"  />

      
      <glyph glyph-name="uni014A" unicode="&#x014A;" d="M768 768L384 768L384 960L768 960L768 768M576 1728L384 1728L384 1920L576 1920L576 1728M192 960L0 960L0 2304L192 2304L192 2112L384 2112L384 1920L192 1920L192 960M960 960L768 960L768 1536L576 1536L576 1728L768 1728L768 2304L960 2304L960 960Z"  horiz-adv-x="1152" vert-adv-y="1536"  />

      
      <glyph glyph-name="uni014B" unicode="&#x014B;" d="M768 768L384 768L384 960L768 960L768 768M960 960L768 960L768 1728L960 1728L960 960M192 960L0 960L0 1920L768 1920L768 1728L192 1728L192 960Z"  horiz-adv-x="1152" vert-adv-y="1536"  />

      
      <glyph glyph-name="uni014C" unicode="&#x014C;" d="M768 960L192 960L192 1152L768 1152L768 960M192 1152L0 1152L0 2112L192 2112L192 1152M960 1152L768 1152L768 2112L960 2112L960 1152M768 2112L192 2112L192 2304L768 2304L768 2112M768 2496L192 2496L192 2688L768 2688L768 2496Z"  horiz-adv-x="1152" vert-adv-y="1536"  />

      
      <glyph glyph-name="uni014D" unicode="&#x014D;" d="M768 960L192 960L192 1152L768 1152L768 960M192 1152L0 1152L0 1728L192 1728L192 1152M960 1152L768 1152L768 1728L960 1728L960 1152M768 1728L192 1728L192 1920L768 1920L768 1728M768 2112L192 2112L192 2304L768 2304L768 2112Z"  horiz-adv-x="1152" vert-adv-y="1536"  />

      
      <glyph glyph-name="uni014E" unicode="&#x014E;" d="M768 960L192 960L192 1152L768 1152L768 960M192 1152L0 1152L0 2112L192 2112L192 1152M960 1152L768 1152L768 2112L960 2112L960 1152M768 2112L192 2112L192 2688L384 2688L384 2496L576 2496L576 2688L768 2688L768 2112Z"  horiz-adv-x="1152" vert-adv-y="1536"  />

      
      <glyph glyph-name="uni014F" unicode="&#x014F;" d="M768 960L192 960L192 1152L768 1152L768 960M192 1152L0 1152L0 1728L192 1728L192 1152M960 1152L768 1152L768 1728L960 1728L960 1152M768 1728L192 1728L192 1920L768 1920L768 1728M768 2112L192 2112L192 2496L384 2496L384 2304L576 2304L576 2496L768 2496L768 2112Z"  horiz-adv-x="1152" vert-adv-y="1536"  />

      
      <glyph glyph-name="uni0150" unicode="&#x0150;" d="M768 960L192 960L192 1152L768 1152L768 960M192 1152L0 1152L0 2112L192 2112L192 1152M960 1152L768 1152L768 2112L960 2112L960 1152M768 2112L192 2112L192 2496L384 2496L384 2304L576 2304L576 2496L768 2496L768 2112M576 2496L384 2496L384 2688L576 2688L576 2496M960 2496L768 2496L768 2688L960 2688L960 2496Z"  horiz-adv-x="1152" vert-adv-y="1536"  />

      
      <glyph glyph-name="uni0151" unicode="&#x0151;" d="M768 960L192 960L192 1152L768 1152L768 960M192 1152L0 1152L0 1728L192 1728L192 1152M960 1152L768 1152L768 1728L960 1728L960 1152M768 1728L192 1728L192 1920L768 1920L768 1728M384 2112L192 2112L192 2304L384 2304L384 2112M768 2112L576 2112L576 2304L768 2304L768 2112M576 2304L384 2304L384 2496L576 2496L576 2304M960 2304L768 2304L768 2496L960 2496L960 2304Z"  horiz-adv-x="1152" vert-adv-y="1536"  />

      
      <glyph glyph-name="uni0152" unicode="&#x0152;" d="M192 1152L0 1152L0 2112L192 2112L192 1152M1728 960L192 960L192 1152L768 1152L768 2112L192 2112L192 2304L1728 2304L1728 2112L960 2112L960 1920L1344 1920L1344 1728L960 1728L960 1152L1728 1152L1728 960Z"  horiz-adv-x="1920" vert-adv-y="1536"  />

      
      <glyph glyph-name="uni0153" unicode="&#x0153;" d="M768 960L192 960L192 1152L768 1152L768 960M1728 960L960 960L960 1152L1728 1152L1728 960M192 1152L0 1152L0 1728L192 1728L192 1152M960 1152L768 1152L768 1728L960 1728L960 1536L1536 1536L1536 1728L1728 1728L1728 1344L960 1344L960 1152M768 1728L192 1728L192 1920L768 1920L768 1728M1536 1728L960 1728L960 1920L1536 1920L1536 1728Z"  horiz-adv-x="1920" vert-adv-y="1536"  />

      
      <glyph glyph-name="uni0154" unicode="&#x0154;" d="M960 960L768 960L768 1728L960 1728L960 960M960 1920L768 1920L768 2112L960 2112L960 1920M192 960L0 960L0 2304L384 2304L384 2496L576 2496L576 2304L768 2304L768 2112L192 2112L192 1920L768 1920L768 1728L192 1728L192 960M768 2496L576 2496L576 2688L768 2688L768 2496Z"  horiz-adv-x="1152" vert-adv-y="1536"  />

      
      <glyph glyph-name="uni0155" unicode="&#x0155;" d="M960 1536L768 1536L768 1728L960 1728L960 1536M192 960L0 960L0 1920L192 1920L192 1728L384 1728L384 1536L192 1536L192 960M768 1728L384 1728L384 1920L768 1920L768 1728M576 2112L384 2112L384 2304L576 2304L576 2112M768 2304L576 2304L576 2496L768 2496L768 2304Z"  horiz-adv-x="1152" vert-adv-y="1536"  />

      
      <glyph glyph-name="uni0156" unicode="&#x0156;" d="M576 576L384 576L384 960L576 960L576 576M960 960L768 960L768 1728L960 1728L960 960M960 1920L768 1920L768 2112L960 2112L960 1920M192 960L0 960L0 2304L768 2304L768 2112L192 2112L192 1920L768 1920L768 1728L192 1728L192 960Z"  horiz-adv-x="1152" vert-adv-y="1536"  />

      
      <glyph glyph-name="uni0157" unicode="&#x0157;" d="M576 576L384 576L384 960L576 960L576 576M960 1536L768 1536L768 1728L960 1728L960 1536M192 960L0 960L0 1920L192 1920L192 1728L384 1728L384 1536L192 1536L192 960M768 1728L384 1728L384 1920L768 1920L768 1728Z"  horiz-adv-x="1152" vert-adv-y="1536"  />

      
      <glyph glyph-name="uni0158" unicode="&#x0158;" d="M960 960L768 960L768 1728L960 1728L960 960M960 1920L768 1920L768 2112L960 2112L960 1920M192 960L0 960L0 2304L384 2304L384 2496L576 2496L576 2304L768 2304L768 2112L192 2112L192 1920L768 1920L768 1728L192 1728L192 960M384 2496L192 2496L192 2688L384 2688L384 2496M768 2496L576 2496L576 2688L768 2688L768 2496Z"  horiz-adv-x="1152" vert-adv-y="1536"  />

      
      <glyph glyph-name="uni0159" unicode="&#x0159;" d="M960 1536L768 1536L768 1728L960 1728L960 1536M192 960L0 960L0 1920L192 1920L192 1728L384 1728L384 1536L192 1536L192 960M768 1728L384 1728L384 1920L768 1920L768 1728M576 2112L384 2112L384 2304L576 2304L576 2112M384 2304L192 2304L192 2496L384 2496L384 2304M768 2304L576 2304L576 2496L768 2496L768 2304Z"  horiz-adv-x="1152" vert-adv-y="1536"  />

      
      <glyph glyph-name="uni015A" unicode="&#x015A;" d="M768 960L192 960L192 1152L768 1152L768 960M192 1152L0 1152L0 1344L192 1344L192 1152M960 1152L768 1152L768 1728L960 1728L960 1152M768 1728L192 1728L192 1920L768 1920L768 1728M192 1920L0 1920L0 2112L192 2112L192 1920M960 2112L192 2112L192 2304L384 2304L384 2496L576 2496L576 2304L960 2304L960 2112M768 2496L576 2496L576 2688L768 2688L768 2496Z"  horiz-adv-x="1152" vert-adv-y="1536"  />

      
      <glyph glyph-name="uni015B" unicode="&#x015B;" d="M768 960L0 960L0 1152L768 1152L768 960M960 1152L768 1152L768 1344L960 1344L960 1152M768 1344L192 1344L192 1536L768 1536L768 1344M192 1536L0 1536L0 1728L192 1728L192 1536M960 1728L192 1728L192 1920L960 1920L960 1728M576 2112L384 2112L384 2304L576 2304L576 2112M768 2304L576 2304L576 2496L768 2496L768 2304Z"  horiz-adv-x="1152" vert-adv-y="1536"  />

      
      <glyph glyph-name="uni015C" unicode="&#x015C;" d="M768 960L192 960L192 1152L768 1152L768 960M192 1152L0 1152L0 1344L192 1344L192 1152M960 1152L768 1152L768 1728L960 1728L960 1152M768 1728L192 1728L192 1920L768 1920L768 1728M192 1920L0 1920L0 2112L192 2112L192 1920M960 2112L192 2112L192 2496L384 2496L384 2304L576 2304L576 2496L768 2496L768 2304L960 2304L960 2112M576 2496L384 2496L384 2688L576 2688L576 2496Z"  horiz-adv-x="1152" vert-adv-y="1536"  />

      
      <glyph glyph-name="uni015D" unicode="&#x015D;" d="M768 960L0 960L0 1152L768 1152L768 960M960 1152L768 1152L768 1344L960 1344L960 1152M768 1344L192 1344L192 1536L768 1536L768 1344M192 1536L0 1536L0 1728L192 1728L192 1536M960 1728L192 1728L192 1920L960 1920L960 1728M384 2112L192 2112L192 2304L384 2304L384 2112M768 2112L576 2112L576 2304L768 2304L768 2112M576 2304L384 2304L384 2496L576 2496L576 2304Z"  horiz-adv-x="1152" vert-adv-y="1536"  />

      
      <glyph glyph-name="uni015E" unicode="&#x015E;" d="M576 576L192 576L192 768L384 768L384 960L192 960L192 1152L768 1152L768 960L576 960L576 576M192 1152L0 1152L0 1344L192 1344L192 1152M960 1152L768 1152L768 1728L960 1728L960 1152M768 1728L192 1728L192 1920L768 1920L768 1728M192 1920L0 1920L0 2112L192 2112L192 1920M960 2112L192 2112L192 2304L960 2304L960 2112Z"  horiz-adv-x="1152" vert-adv-y="1536"  />

      
      <glyph glyph-name="uni015F" unicode="&#x015F;" d="M576 576L192 576L192 768L384 768L384 960L0 960L0 1152L768 1152L768 960L576 960L576 576M960 1152L768 1152L768 1344L960 1344L960 1152M768 1344L192 1344L192 1536L768 1536L768 1344M192 1536L0 1536L0 1728L192 1728L192 1536M960 1728L192 1728L192 1920L960 1920L960 1728Z"  horiz-adv-x="1152" vert-adv-y="1536"  />

      
      <glyph glyph-name="uni0160" unicode="&#x0160;" d="M768 960L192 960L192 1152L768 1152L768 960M192 1152L0 1152L0 1344L192 1344L192 1152M960 1152L768 1152L768 1728L960 1728L960 1152M768 1728L192 1728L192 1920L768 1920L768 1728M192 1920L0 1920L0 2112L192 2112L192 1920M960 2112L192 2112L192 2304L384 2304L384 2496L576 2496L576 2304L960 2304L960 2112M384 2496L192 2496L192 2688L384 2688L384 2496M768 2496L576 2496L576 2688L768 2688L768 2496Z"  horiz-adv-x="1152" vert-adv-y="1536"  />

      
      <glyph glyph-name="uni0161" unicode="&#x0161;" d="M768 960L0 960L0 1152L768 1152L768 960M960 1152L768 1152L768 1344L960 1344L960 1152M768 1344L192 1344L192 1536L768 1536L768 1344M192 1536L0 1536L0 1728L192 1728L192 1536M960 1728L192 1728L192 1920L960 1920L960 1728M576 2112L384 2112L384 2304L576 2304L576 2112M384 2304L192 2304L192 2496L384 2496L384 2304M768 2304L576 2304L576 2496L768 2496L768 2304Z"  horiz-adv-x="1152" vert-adv-y="1536"  />

      
      <glyph glyph-name="uni0162" unicode="&#x0162;" d="M768 576L384 576L384 768L576 768L576 960L768 960L768 576M576 960L384 960L384 2112L0 2112L0 2304L960 2304L960 2112L576 2112L576 960Z"  horiz-adv-x="1152" vert-adv-y="1536"  />

      
      <glyph glyph-name="uni0163" unicode="&#x0163;" d="M576 576L192 576L192 768L384 768L384 1152L576 1152L576 576M384 1152L192 1152L192 1920L0 1920L0 2112L192 2112L192 2304L384 2304L384 2112L576 2112L576 1920L384 1920L384 1152Z"  horiz-adv-x="768" vert-adv-y="1536"  />

      
      <glyph glyph-name="uni0164" unicode="&#x0164;" d="M576 960L384 960L384 2112L0 2112L0 2304L384 2304L384 2496L576 2496L576 2304L960 2304L960 2112L576 2112L576 960M384 2496L192 2496L192 2688L384 2688L384 2496M768 2496L576 2496L576 2688L768 2688L768 2496Z"  horiz-adv-x="1152" vert-adv-y="1536"  />

      
      <glyph glyph-name="uni0165" unicode="&#x0165;" d="M576 960L384 960L384 1152L576 1152L576 960M384 1152L192 1152L192 1920L0 1920L0 2112L192 2112L192 2304L384 2304L384 2112L576 2112L576 1920L384 1920L384 1152M960 2112L768 2112L768 2496L960 2496L960 2112Z"  horiz-adv-x="1152" vert-adv-y="1536"  />

      
      <glyph glyph-name="uni0166" unicode="&#x0166;" d="M576 960L384 960L384 1536L192 1536L192 1728L384 1728L384 2112L0 2112L0 2304L960 2304L960 2112L576 2112L576 1728L768 1728L768 1536L576 1536L576 960Z"  horiz-adv-x="1152" vert-adv-y="1536"  />

      
      <glyph glyph-name="uni0167" unicode="&#x0167;" d="M576 960L384 960L384 1152L576 1152L576 960M384 1152L192 1152L192 1536L0 1536L0 1728L192 1728L192 1920L0 1920L0 2112L192 2112L192 2304L384 2304L384 2112L576 2112L576 1920L384 1920L384 1728L576 1728L576 1536L384 1536L384 1152Z"  horiz-adv-x="768" vert-adv-y="1536"  />

      
      <glyph glyph-name="uni0168" unicode="&#x0168;" d="M768 960L192 960L192 1152L768 1152L768 960M960 1152L768 1152L768 2304L960 2304L960 1152M192 1152L0 1152L0 2496L192 2496L192 1152M768 2304L384 2304L384 2496L192 2496L192 2688L576 2688L576 2496L768 2496L768 2304M960 2496L768 2496L768 2688L960 2688L960 2496Z"  horiz-adv-x="1152" vert-adv-y="1536"  />

      
      <glyph glyph-name="uni0169" unicode="&#x0169;" d="M192 1152L0 1152L0 1920L192 1920L192 1152M960 960L192 960L192 1152L768 1152L768 1920L960 1920L960 960M192 2112L0 2112L0 2304L192 2304L192 2112M768 2112L384 2112L384 2304L192 2304L192 2496L576 2496L576 2304L768 2304L768 2112M960 2304L768 2304L768 2496L960 2496L960 2304Z"  horiz-adv-x="1152" vert-adv-y="1536"  />

      
      <glyph glyph-name="uni016A" unicode="&#x016A;" d="M768 960L192 960L192 1152L768 1152L768 960M192 1152L0 1152L0 2304L192 2304L192 1152M960 1152L768 1152L768 2304L960 2304L960 1152M768 2496L192 2496L192 2688L768 2688L768 2496Z"  horiz-adv-x="1152" vert-adv-y="1536"  />

      
      <glyph glyph-name="uni016B" unicode="&#x016B;" d="M192 1152L0 1152L0 1920L192 1920L192 1152M960 960L192 960L192 1152L768 1152L768 1920L960 1920L960 960M768 2112L192 2112L192 2304L768 2304L768 2112Z"  horiz-adv-x="1152" vert-adv-y="1536"  />

      
      <glyph glyph-name="uni016C" unicode="&#x016C;" d="M768 960L192 960L192 1152L768 1152L768 960M192 1152L0 1152L0 2304L192 2304L192 1152M960 1152L768 1152L768 2304L960 2304L960 1152M768 2304L192 2304L192 2688L384 2688L384 2496L576 2496L576 2688L768 2688L768 2304Z"  horiz-adv-x="1152" vert-adv-y="1536"  />

      
      <glyph glyph-name="uni016D" unicode="&#x016D;" d="M192 1152L0 1152L0 1920L192 1920L192 1152M960 960L192 960L192 1152L768 1152L768 1920L960 1920L960 960M768 2112L192 2112L192 2496L384 2496L384 2304L576 2304L576 2496L768 2496L768 2112Z"  horiz-adv-x="1152" vert-adv-y="1536"  />

      
      <glyph glyph-name="uni016E" unicode="&#x016E;" d="M768 960L192 960L192 1152L768 1152L768 960M384 2304L576 2304L576 2496L384 2496L384 2304M192 1152L0 1152L0 2304L192 2304L192 2688L768 2688L768 2304L960 2304L960 1152L768 1152L768 2112L192 2112L192 1152Z"  horiz-adv-x="1152" vert-adv-y="1536"  />

      
      <glyph glyph-name="uni016F" unicode="&#x016F;" d="M192 1152L0 1152L0 1920L192 1920L192 1152M960 960L192 960L192 1152L768 1152L768 1920L960 1920L960 960M384 2304L576 2304L576 2496L384 2496L384 2304M768 2112L192 2112L192 2688L768 2688L768 2112Z"  horiz-adv-x="1152" vert-adv-y="1536"  />

      
      <glyph glyph-name="uni0170" unicode="&#x0170;" d="M768 960L192 960L192 1152L768 1152L768 960M192 1152L0 1152L0 2304L192 2304L192 1152M960 1152L768 1152L768 2304L960 2304L960 1152M384 2304L192 2304L192 2496L384 2496L384 2304M768 2304L576 2304L576 2496L768 2496L768 2304M576 2496L384 2496L384 2688L576 2688L576 2496M960 2496L768 2496L768 2688L960 2688L960 2496Z"  horiz-adv-x="1152" vert-adv-y="1536"  />

      
      <glyph glyph-name="uni0171" unicode="&#x0171;" d="M192 1152L0 1152L0 1920L192 1920L192 1152M960 960L192 960L192 1152L768 1152L768 1920L960 1920L960 960M384 2112L192 2112L192 2304L384 2304L384 2112M768 2112L576 2112L576 2304L768 2304L768 2112M576 2304L384 2304L384 2496L576 2496L576 2304M960 2304L768 2304L768 2496L960 2496L960 2304Z"  horiz-adv-x="1152" vert-adv-y="1536"  />

      
      <glyph glyph-name="uni0172" unicode="&#x0172;" d="M768 576L384 576L384 960L192 960L192 1152L768 1152L768 960L576 960L576 768L768 768L768 576M192 1152L0 1152L0 2304L192 2304L192 1152M960 1152L768 1152L768 2304L960 2304L960 1152Z"  horiz-adv-x="1152" vert-adv-y="1536"  />

      
      <glyph glyph-name="uni0173" unicode="&#x0173;" d="M192 1152L0 1152L0 1920L192 1920L192 1152M960 576L576 576L576 960L192 960L192 1152L768 1152L768 1920L960 1920L960 960L768 960L768 768L960 768L960 576Z"  horiz-adv-x="1152" vert-adv-y="1536"  />

      
      <glyph glyph-name="uni0174" unicode="&#x0174;" d="M576 1344L384 1344L384 1536L576 1536L576 1344M192 960L0 960L0 2304L192 2304L192 1344L384 1344L384 1152L192 1152L192 960M960 960L768 960L768 1152L576 1152L576 1344L768 1344L768 2304L960 2304L960 960M384 2304L192 2304L192 2496L384 2496L384 2304M768 2304L576 2304L576 2496L768 2496L768 2304M576 2496L384 2496L384 2688L576 2688L576 2496Z"  horiz-adv-x="1152" vert-adv-y="1536"  />

      
      <glyph glyph-name="uni0175" unicode="&#x0175;" d="M192 1152L0 1152L0 1920L192 1920L192 1152M960 960L192 960L192 1152L384 1152L384 1536L576 1536L576 1152L768 1152L768 1920L960 1920L960 960M384 2112L192 2112L192 2304L384 2304L384 2112M768 2112L576 2112L576 2304L768 2304L768 2112M576 2304L384 2304L384 2496L576 2496L576 2304Z"  horiz-adv-x="1152" vert-adv-y="1536"  />

      
      <glyph glyph-name="uni0176" unicode="&#x0176;" d="M576 960L384 960L384 1920L576 1920L576 960M384 1920L192 1920L192 2112L384 2112L384 1920M768 1920L576 1920L576 2112L768 2112L768 1920M192 2112L0 2112L0 2304L192 2304L192 2112M960 2112L768 2112L768 2304L960 2304L960 2112M384 2304L192 2304L192 2496L384 2496L384 2304M768 2304L576 2304L576 2496L768 2496L768 2304M576 2496L384 2496L384 2688L576 2688L576 2496Z"  horiz-adv-x="1152" vert-adv-y="1536"  />

      
      <glyph glyph-name="uni0177" unicode="&#x0177;" d="M768 768L0 768L0 960L768 960L768 768M192 1344L0 1344L0 1920L192 1920L192 1344M960 960L768 960L768 1152L192 1152L192 1344L768 1344L768 1920L960 1920L960 960M384 2112L192 2112L192 2304L384 2304L384 2112M768 2112L576 2112L576 2304L768 2304L768 2112M576 2304L384 2304L384 2496L576 2496L576 2304Z"  horiz-adv-x="1152" vert-adv-y="1536"  />

      
      <glyph glyph-name="uni0178" unicode="&#x0178;" d="M576 960L384 960L384 1920L576 1920L576 960M384 1920L192 1920L192 2112L384 2112L384 1920M768 1920L576 1920L576 2112L768 2112L768 1920M192 2112L0 2112L0 2304L192 2304L192 2112M960 2112L768 2112L768 2304L960 2304L960 2112M384 2496L192 2496L192 2688L384 2688L384 2496M768 2496L576 2496L576 2688L768 2688L768 2496Z"  horiz-adv-x="1152" vert-adv-y="1536"  />

      
      </font>
</defs>
</svg>
